<?xml version="1.0" standalone="no"?>
<!DOCTYPE svg PUBLIC "-//W3C//DTD SVG 20010904//EN"
 "http://www.w3.org/TR/2001/REC-SVG-20010904/DTD/svg10.dtd">
<svg version="1.0" xmlns="http://www.w3.org/2000/svg"
 width="700.000000pt" height="700.000000pt" viewBox="0 0 700.000000 700.000000"
 preserveAspectRatio="xMidYMid meet">
<metadata>
Created by potrace 1.11, written by Peter Selinger 2001-2013
</metadata>
<g transform="translate(0.000000,700.000000) scale(0.100000,-0.100000)"
fill="#000000" stroke="none">
<path d="M975 6983 c-493 -88 -870 -468 -959 -965 -13 -72 -15 -404 -15 -2508
0 -1493 4 -2452 10 -2495 60 -438 371 -813 790 -954 35 -12 105 -30 154 -40
86 -18 187 -19 2565 -17 2334 1 2479 3 2545 19 39 10 77 20 85 22 42 10 133
46 195 77 282 139 504 396 598 695 60 189 57 11 54 2713 l-2 2475 -23 85 c-45
172 -119 326 -215 450 -176 225 -398 367 -687 436 -71 17 -200 18 -2545 20
-2111 2 -2482 0 -2550 -13z m4945 -307 c167 -17 350 -98 482 -214 115 -100
224 -294 259 -457 l21 -100 0 -2400 c0 -1320 -3 -2416 -6 -2435 -19 -105 -31
-152 -59 -220 -109 -266 -338 -455 -623 -515 -72 -15 -286 -17 -2479 -17
-1320 0 -2420 3 -2445 7 -72 11 -83 13 -126 24 -70 18 -165 62 -244 114 -207
137 -345 360 -375 607 -9 69 -9 4799 -1 4860 42 298 217 541 481 666 104 49
187 72 294 82 96 9 4733 6 4821 -2z"/>
<path d="M3325 5278 c-209 -35 -328 -71 -481 -146 -146 -72 -298 -182 -398
-287 -107 -113 -152 -171 -142 -183 3 -4 106 -107 228 -230 l223 -222 23 27
c57 68 156 163 211 203 110 80 277 157 382 175 18 3 35 8 39 10 12 8 142 18
205 16 279 -8 452 -151 459 -381 4 -132 -28 -215 -119 -305 -91 -92 -167 -138
-549 -334 -307 -158 -378 -199 -546 -312 -216 -145 -353 -296 -446 -489 -32
-66 -84 -205 -90 -240 -3 -14 -9 -39 -15 -57 -5 -17 -12 -44 -15 -60 -2 -15
-7 -39 -9 -53 -3 -14 -7 -43 -11 -65 -3 -22 -7 -50 -9 -62 -9 -54 -18 -241
-19 -400 l-2 -173 105 0 c138 -1 2257 -1 2336 0 l60 0 -1 318 c-1 174 -2 320
-3 323 0 4 -369 7 -818 7 -450 0 -835 1 -856 1 l-38 1 2 53 c7 162 100 305
292 448 71 53 188 126 307 191 543 298 580 320 730 431 52 39 119 95 148 126
112 117 195 276 229 436 18 86 20 293 4 395 -75 467 -424 767 -971 835 -83 11
-388 13 -445 3z"/>
</g>
</svg>
