<?xml version="1.0" encoding="utf-8"?>
<!-- Generator: Adobe Illustrator 22.1.0, SVG Export Plug-In . SVG Version: 6.00 Build 0)  -->
<svg version="1.1" id="Layer_1" xmlns="http://www.w3.org/2000/svg" xmlns:xlink="http://www.w3.org/1999/xlink" x="0px" y="0px"
	 viewBox="0 0 1008.6 232.6" style="enable-background:new 0 0 1008.6 232.6;" xml:space="preserve">
<style type="text/css">
	.st0{opacity:0.2;}
	.st1{fill:#016848;}
</style>
<g class="st0">
	<path class="st1" d="M281.2,143.1v0.1l0,0c0,0.1,0.1,0.2,0.1,0.2s0,0,0,0.1c0.1,0.1,0.1,0.2,0.2,0.2h0.1c0.1,0,0.1,0.1,0.2,0.1l0,0
		l73.5,19.7c0.1,0,0.2,0,0.3,0h0.1l76.2-9.8h0.1c0.1,0,0.1,0,0.2-0.1c0,0,0.1,0,0.1-0.1c0.1,0,0.1-0.1,0.2-0.1l0.1-0.1
		c0-0.1,0.1-0.1,0.1-0.2c0,0,0-0.1,0.1-0.1l0,0c0-0.1,0-0.1,0-0.2v-0.1l0,0c0-0.1,0-0.2-0.1-0.3c0,0,0,0,0-0.1s-0.1-0.2-0.2-0.2
		l-0.1-0.1c0,0-0.1-0.1-0.2-0.1l-92.8-50.7c-0.3-0.2-0.7-0.2-1.1,0.1l-57,40.8l0,0l0,0c-0.1,0.1-0.2,0.1-0.2,0.2v0.1
		c0,0.1-0.1,0.2-0.1,0.2s0,0,0,0.1c0,0,0,0,0,0.1C281.1,142.9,281.2,143,281.2,143.1z M355.7,161.7l-63.5-17.1l19.9,1.3l109.5,7.3
		L355.7,161.7z M339.2,103.4l88.3,48.2l-109-7.2l-33.4-2.2L339.2,103.4z"/>
	<path class="st1" d="M1008.6,137.4c0-0.1,0-0.1,0-0.2c0-0.1,0-0.1,0-0.2c0,0,0-0.1-0.1-0.1c0-0.1-0.1-0.1-0.1-0.2l-0.1-0.1
		c-0.1,0-0.1-0.1-0.2-0.1l0,0L903.7,78.8h-0.1c-0.1,0-0.1,0-0.2-0.1h-0.1c-0.1,0-0.1,0-0.2,0c-0.1,0-0.1,0-0.1,0h-0.1l-43.4,14.9
		c-0.1,0-0.1,0-0.1,0.1c0,0-0.1,0-0.1,0.1c-0.1,0.1-0.2,0.1-0.2,0.2l0,0l0,0c-0.1,0.1-0.1,0.2-0.1,0.3v0.1c0,0.1,0,0.1,0,0.2l0,0
		v0.1c0,0.1,0,0.1,0,0.2c0,0,0,0.1,0.1,0.1c0,0.1,0.1,0.1,0.1,0.2l0,0l45,57l0,0c0.1,0.1,0.2,0.2,0.3,0.2c0,0,0,0,0.1,0
		s0.2,0.1,0.3,0.1l0,0l0,0h0.1l102.7-14.2c0,0,0,0,0.1,0s0.1,0,0.2-0.1c0,0,0.1,0,0.1-0.1c0.1,0,0.1-0.1,0.2-0.1l0.1-0.1
		c0-0.1,0.1-0.1,0.1-0.2c0,0,0-0.1,0.1-0.1l0,0L1008.6,137.4C1008.6,137.5,1008.6,137.4,1008.6,137.4L1008.6,137.4z M904.9,150
		l-42.1-53.4l23.7,8.4l45.3,16l-4.2,4.5L904.9,150z M1001,134.8l-66.8-15.1l-27.4-36.9L1001,134.8z M902.9,80.8l28,37.7L895,105.9
		l-32.1-11.3L902.9,80.8z M907.5,150.2l26.4-28.5l68.1,15.4L907.5,150.2z"/>
	<path class="st1" d="M65.7,232.6h4.2L201.3,161l0,0l0.1-0.1l0.1-0.1l0.1-0.1l0.1-0.1l0,0v-0.1c0-0.1,0-0.1,0-0.2c0-0.1,0-0.1,0-0.2
		V160l0,0c0-0.1,0-0.1-0.1-0.2c0,0,0-0.1-0.1-0.1l-0.1-0.1l-0.1-0.1l0,0L0,0v2.5l197.5,156.2L0,136.2v2l197.6,22.5L65.7,232.6z"/>
	<path class="st1" d="M234.4,232.6l55-38l7.2,17l8.9,21h2.2l-6.9-16.3l-9.3-22l83.4,12.1l-41,25.7l-0.7,0.5h3.8l38.1-23.8
		l-13.3,23.8h2.3l14.6-26.3l0,0c0-0.1,0-0.1,0.1-0.2V206c0-0.1,0-0.1,0-0.2v-0.1l0,0c0-0.1,0-0.1-0.1-0.1v-0.1
		c0-0.1-0.1-0.2-0.2-0.2l0,0l0,0c-0.1-0.1-0.2-0.1-0.3-0.2h-0.1c-0.1,0-0.1,0-0.2-0.1L290,192.1c-0.1,0-0.2,0-0.3,0l0,0
		c-0.1,0-0.2,0.1-0.3,0.1l0,0L231,232.5L234.4,232.6L234.4,232.6z"/>
	<path class="st1" d="M415.2,232.6l20.5-46.7l53.6,7.7l-32.1,25.3l-17.3,13.6h3.2l48.8-38.4l85.8,36.7l-9.4,1.8H579l2.3-0.4h0.1
		c0.1,0,0.1,0,0.1-0.1c0.1,0,0.1-0.1,0.2-0.1h0.1c0,0,0,0,0-0.1l0.1-0.1c0,0,0.1-0.1,0.1-0.2v-0.1c0-0.1,0-0.1,0.1-0.2
		c0,0,0,0,0-0.1l0,0c0-0.1,0-0.1,0-0.2v-0.1l0,0l-21.2-82.3c0,0,0,0,0-0.1v-0.1c0-0.1-0.1-0.1-0.1-0.2c0,0,0-0.1-0.1-0.1
		c-0.1-0.1-0.2-0.2-0.3-0.2l0,0c-0.1,0-0.2-0.1-0.3-0.1l0,0c-0.1,0-0.2,0-0.3,0l0,0L435,183.7h-0.1c-0.1,0-0.1,0.1-0.2,0.1l-0.1,0.1
		l-0.1,0.1l-0.1,0.1c0,0,0,0.1-0.1,0.1L413,232.6H415.2z M579.5,229.4l-85.8-36.6l65.5-42.3L579.5,229.4z M553.6,151.7l-62.2,40.2
		l-51.6-7.4L553.6,151.7z"/>
	<path class="st1" d="M676.5,232.6l88.8-61.4l3.5,8.3l18.1,43l-36.4,10h7.5l29.5-8.1l2.1,8.1h2.1l-2.3-8.9l61.3-38.3l-26.3,47.2h2.3
		l27.6-49.6l0,0c0-0.1,0-0.1,0.1-0.2v-0.1c0-0.1,0-0.1,0-0.2v-0.1l0,0c0-0.1,0-0.1-0.1-0.1v-0.1c0-0.1-0.1-0.2-0.2-0.2l0,0l0,0
		c-0.1-0.1-0.2-0.1-0.3-0.2h-0.1c-0.1,0-0.1,0-0.2-0.1l-87.8-12.8c-0.1,0-0.2,0-0.3,0l0,0c-0.1,0-0.2,0.1-0.4,0.1l0,0l-92.2,63.7
		H676.5z M850.7,183.1l-1.1,0.7l-60.9,38L767.3,171L850.7,183.1z"/>
</g>
</svg>
