<?xml version="1.0" encoding="utf-8"?>
<!-- Generator: Adobe Illustrator 22.1.0, SVG Export Plug-In . SVG Version: 6.00 Build 0)  -->
<svg version="1.1" id="Layer_1" xmlns="http://www.w3.org/2000/svg" xmlns:xlink="http://www.w3.org/1999/xlink" x="0px" y="0px"
	 viewBox="0 0 342.5 446.8" style="enable-background:new 0 0 342.5 446.8;" xml:space="preserve">
<style type="text/css">
	.st0{opacity:0.2;}
	.st1{fill:#016848;}
</style>
<g class="st0">
	<path class="st1" d="M140.1,1c0,0.1,0,0.1,0,0.1c0,0.1,0,0.1,0,0.2s0,0.1,0.1,0.1c0,0,0,0.1,0.1,0.1L264.2,165l0,0
		c0.1,0.1,0.2,0.2,0.3,0.3h0.1c0.1,0.1,0.3,0.1,0.4,0.1l0,0l0,0l0,0h0.1l0,0c0.1,0,0.1,0,0.2-0.1h0.1l0,0c0,0,0,0,0.1-0.1
		c0.1,0,0.1-0.1,0.2-0.1l0.1-0.1c0-0.1,0.1-0.1,0.1-0.2v-0.1v-0.1l21.2-140.4c0,0,0,0,0-0.1c0,0,0,0,0-0.1s0-0.2,0-0.3v-0.1
		c0-0.1-0.1-0.2-0.2-0.4l0,0c0,0,0,0-0.1,0c-0.1-0.1-0.2-0.1-0.3-0.2h-0.1h-0.1L141.2,0l0,0c-0.1,0-0.2,0-0.2,0h-0.1
		c-0.2,0-0.4,0.2-0.6,0.3l0,0c0,0,0,0.1-0.1,0.1c0,0.1-0.1,0.1-0.1,0.2l0,0v0.1C140.1,0.9,140.1,1,140.1,1z M149.9,6.1l57.5,26.1
		L251,134.3l9.9,23.1L144.2,3.5L149.9,6.1z M264.5,160.8L209.6,32.3l75.5-7.2L264.5,160.8z M278.3,23.7l-70,6.7L148.2,3.1
		L278.3,23.7z"/>
	<path class="st1" d="M92.2,393v-0.1c0-0.1,0-0.1,0-0.2l0,0c0,0,0,0,0-0.1v-0.1l-26.4-36.1l-0.1-0.1l-0.1-0.1c0,0-0.1,0-0.1-0.1
		l-0.1-0.1l0,0c-0.1-0.1-0.3-0.1-0.5-0.1L1.1,359c-0.1,0-0.1,0-0.2,0H0.8c-0.1,0-0.2,0.1-0.3,0.2l0,0c0,0,0,0-0.1,0.1
		s-0.1,0.1-0.1,0.2c0,0,0,0.1-0.1,0.1c0,0,0,0.1-0.1,0.1c0,0,0,0,0,0.1v0.1c0,0.1,0,0.1,0,0.2v0.1c0,0.1,0,0.1,0.1,0.2v0.1
		l45.4,85.6c0,0,0,0,0.1,0.1c0,0,0,0.1,0.1,0.1l0.1,0.1c0,0,0.1,0,0.1,0.1c0.1,0,0.1,0.1,0.2,0.1c0,0,0,0,0.1,0l0,0
		c0.1,0,0.2,0,0.3,0l0,0l0,0l0,0c0.1,0,0.2,0,0.3,0H47c0,0,0.1,0,0.1-0.1c0.1,0,0.2-0.1,0.2-0.2c0,0,0,0,0.1,0l44.8-52.6l0,0l0,0
		l0,0c0-0.1,0.1-0.1,0.1-0.2l0,0v-0.1c0-0.1,0-0.1,0-0.2v-0.1C92.2,393.2,92.2,393.1,92.2,393z M64.9,393.5l-19.2,0.9L64.9,359
		l24.4,33.3L64.9,393.5z M45,396.4l43.9-2.1l-41.7,49L45,396.4z M63.1,358.2l-19.4,35.7L3.7,361L63.1,358.2z M4.2,364.1L43,396
		l2.2,45.4L4.2,364.1z"/>
	<path class="st1" d="M342.5,368.2l-47.8,41.5l4.7-118.4l4.4,1.7l38.6,14.6v-2.1l-34.4-13l-8.1-3.1l42.5-74.2v-4L298,288.9l-193,4.6
		l237.6-116.7v-2.2L100,293.7c0,0,0,0-0.1,0.1c-0.1,0-0.1,0.1-0.2,0.1l-0.1,0.1c0,0-0.1,0.1-0.1,0.2c0,0,0,0.1-0.1,0.1v0.1v0.1v0.1
		c0,0.1,0,0.1,0,0.2c0,0,0,0,0,0.1c0,0,0,0,0,0.1s0,0.1,0.1,0.2c0,0,0,0.1,0.1,0.1l0.1,0.1l0.1,0.1l0,0L293,412.9l0,0l0,0l0,0
		c0.1,0,0.2,0.1,0.4,0.1l0,0l0,0c0.1,0,0.2,0,0.3-0.1h0.1h0.1l0.1-0.1c0,0,0,0,0.1,0l48.2-41.9v-2.7H342.5z M292.7,410.3
		L103.9,295.5l193.6-4.6L292.7,410.3z"/>
</g>
</svg>
