<?xml version="1.0" encoding="utf-8"?>
<!-- Generator: Adobe Illustrator 22.1.0, SVG Export Plug-In . SVG Version: 6.00 Build 0)  -->
<svg version="1.1" id="Layer_1" xmlns="http://www.w3.org/2000/svg" xmlns:xlink="http://www.w3.org/1999/xlink" x="0px" y="0px"
	 viewBox="0 0 518.3 496.3" style="enable-background:new 0 0 518.3 496.3;" xml:space="preserve">
<style type="text/css">
	.st0{fill:#D0DF63;}
	.st1{fill:#C5E8F3;}
	.st2{fill:#016848;}
	.st3{fill:#1A3A44;}
</style>
<g>
	<path id="Path_2621" class="st0" d="M237,119.8l281.3,163.3l-268.8-77L237,119.8z"/>
	<path id="Path_2622" class="st1" d="M115.4,239.3L237,119.8l12.5,86.3L115.4,239.3z"/>
	<path id="Path_2623" class="st2" d="M193.4,297.7l-77.9-58.3l134.1-33.2L193.4,297.7z"/>
	<path id="Path_2624" class="st3" d="M518.3,283.1l-324.9,14.6l56.1-91.6L518.3,283.1z"/>
	<path id="Path_2631" class="st0" d="M176.5,387.6l-39.4-1.5l-43.8,38.6L176.5,387.6z"/>
	<path id="Path_2632" class="st2" d="M168.2,434.3l8.2-46.7L89.8,496.3L168.2,434.3z"/>
	<path id="Path_2633" class="st1" d="M93.3,424.7l-3.5,71.6l86.7-108.7L93.3,424.7z"/>
	<polygon class="st1" points="0,0 0,162.7 160.9,59.7 	"/>
	<polygon class="st3" points="0,162.7 0,283.1 160.9,59.7 	"/>
</g>
</svg>
