<svg xmlns="http://www.w3.org/2000/svg" width="118.226" height="127.531" viewBox="0 0 118.226 127.531">
  <g id="Group_379" data-name="Group 379" transform="translate(-1419.26 -100.296)">
    <path id="Path_492" data-name="Path 492" d="M1430.238,226.088V215.866c0-9.09,5.453-16.459,14.543-16.459,0,0,27.968-.5,29.047-23.4v-6.449l15.689-.341s-3.211,15.428,14.275,21.765c0,0,9.367,2.957,15.7,2.369,0,0,13.437.28,14.007,18.931v13.8Z" fill="#efefef"/>
    <path id="Path_493" data-name="Path 493" d="M1465.6,175.73a25.272,25.272,0,0,0,24.572,0l-1.451-7.212s-14.892,3.633-22.381-.407Z" fill="#cccece"/>
    <circle id="Ellipse_82" data-name="Ellipse 82" cx="33.592" cy="33.592" r="33.592" transform="translate(1444.781 102.545)" stroke-width="4.498" stroke="#1b3a43" stroke-linecap="round" stroke-linejoin="round" fill="#fff"/>
    <path id="Path_494" data-name="Path 494" d="M1489.847,169.728c1.1,23.378,28.589,22.249,28.589,22.249a16.8,16.8,0,0,1,16.8,16.8v16.8H1421.509v-16.8a16.8,16.8,0,0,1,16.8-16.8s27.078,1.129,28.18-22.249" fill="none" stroke="#1b3a43" stroke-linecap="round" stroke-linejoin="round" stroke-width="4.498"/>
    <g id="Group_378" data-name="Group 378">
      <rect id="Rectangle_237" data-name="Rectangle 237" width="85.835" height="22.109" rx="11.055" transform="translate(1435.455 125.082)" stroke-width="4.498" stroke="#1b3a43" stroke-linecap="round" stroke-linejoin="round" fill="#fff"/>
      <line id="Line_220" data-name="Line 220" x2="62.531" transform="translate(1447.108 136.137)" fill="none" stroke="#d0df65" stroke-linecap="round" stroke-linejoin="round" stroke-width="4.498"/>
    </g>
  </g>
</svg>
