<svg xmlns="http://www.w3.org/2000/svg" width="187.563" height="93.706" viewBox="0 0 187.563 93.706">
  <g id="Group_352" data-name="Group 352" transform="translate(-931.091 -283.511)">
    <path id="Path_449" data-name="Path 449" d="M1022.875,345.234s25.807,17.757,49.879,3.878C1072.754,349.112,1047.815,376.326,1022.875,345.234Z" fill="#eaeaea"/>
    <g id="Group_348" data-name="Group 348">
      <path id="Path_450" data-name="Path 450" d="M1105.3,329.75s10.5,29.715-23.368,29.715H996.586l-13.166,15.5s-29.092.5-35.767-1.621a39.589,39.589,0,0,0,10.983,2.272h138.008S1136.507,358.156,1105.3,329.75Z" fill="#eaeaea"/>
    </g>
    <path id="Path_451" data-name="Path 451" d="M933.34,350.085s11.983,29.432,48.779,9.264c0,0,.741.116,14.467.116l-13.166,15.5s-31.966.553-36.584-1.943C946.836,373.025,932.125,362.772,933.34,350.085Z" fill="#eaeaea"/>
    <path id="Path_452" data-name="Path 452" d="M1081.735,327.2" fill="none" stroke="#231f20" stroke-linecap="round" stroke-linejoin="round" stroke-width="4.448"/>
    <path id="Path_453" data-name="Path 453" d="M1081.517,326.007" fill="none" stroke="#231f20" stroke-linecap="round" stroke-linejoin="round" stroke-width="4.448"/>
    <g id="Group_349" data-name="Group 349">
      <path id="Path_454" data-name="Path 454" d="M959.957,325.262c-.007-.314-.011-.63-.011-.946a38.57,38.57,0,0,1,73.279-16.813" fill="none" stroke="#231f20" stroke-linecap="round" stroke-linejoin="round" stroke-width="4.448"/>
    </g>
    <path id="Path_455" data-name="Path 455" d="M1020.764,332.192a30.692,30.692,0,0,1,60.753-6.185l.218,1.2a24.885,24.885,0,1,1,9.788,47.766h-133.3A24.882,24.882,0,1,1,983.1,350.085" fill="none" stroke="#231f20" stroke-linecap="round" stroke-linejoin="round" stroke-width="4.448"/>
    <g id="Group_351" data-name="Group 351">
      <g id="Group_350" data-name="Group 350">
        <path id="Path_456" data-name="Path 456" d="M959.88,325.119c-.006-.315-.009-.63-.007-.947a38.57,38.57,0,0,1,73.344-16.526" fill="none" stroke="#1b3a43" stroke-linecap="round" stroke-linejoin="round" stroke-width="4.498"/>
      </g>
      <path id="Path_457" data-name="Path 457" d="M1020.764,332.192a30.692,30.692,0,0,1,60.753-6.185l.218,1.2a24.885,24.885,0,1,1,9.788,47.766h-133.3A24.882,24.882,0,1,1,983.1,350.085" fill="none" stroke="#1b3a43" stroke-linecap="round" stroke-linejoin="round" stroke-width="4.498"/>
    </g>
    <path id="Path_458" data-name="Path 458" d="M1037.343,329.1a14.109,14.109,0,0,1,14.109-14.109" fill="none" stroke="#d0df65" stroke-linecap="round" stroke-linejoin="round" stroke-width="4.448"/>
    <path id="Path_459" data-name="Path 459" d="M947.883,349.516a11.28,11.28,0,0,1,11.28-11.28" fill="none" stroke="#d0df65" stroke-linecap="round" stroke-linejoin="round" stroke-width="4.448"/>
    <path id="Path_460" data-name="Path 460" d="M979.917,316.793a16.579,16.579,0,0,1,16.759-16.4" fill="none" stroke="#d0df65" stroke-linecap="round" stroke-linejoin="round" stroke-width="4.448"/>
    <path id="Path_461" data-name="Path 461" d="M997.215,334.66" fill="none" stroke="#231f20" stroke-linecap="round" stroke-linejoin="round" stroke-width="4.448"/>
    <path id="Path_462" data-name="Path 462" d="M1013.793,318.082" fill="none" stroke="#231f20" stroke-linecap="round" stroke-linejoin="round" stroke-width="4.448"/>
  </g>
</svg>
