<svg xmlns="http://www.w3.org/2000/svg" width="130" height="130" viewBox="0 0 148.585 168.177">
  <g id="Group_381" data-name="Group 381" transform="translate(-88.104 -296.142)">
    <path id="Path_495" data-name="Path 495" d="M116.265,462.07V451.847a16.459,16.459,0,0,1,16.459-16.459s26.528,1.106,27.608-21.8v-6.448l15.45-1.944s-3.211,15.428,14.274,21.765c0,0,9.367,2.957,15.7,2.37,0,0,13.436.28,14.007,18.93V462.07Z" fill="#efefef"/>
    <path id="Path_496" data-name="Path 496" d="M151.586,412.8a25.231,25.231,0,0,0,24.533,0l-1.449-7.2s-14.868,3.628-22.345-.406Z" fill="#cccece"/>
    <path id="Path_497" data-name="Path 497" d="M164.058,419.875" fill="none" stroke="#1b3a43" stroke-linecap="round" stroke-linejoin="round" stroke-width="4.498"/>
    <circle id="Ellipse_83" data-name="Ellipse 83" cx="32.909" cy="32.909" r="32.909" transform="translate(131.149 341.536)" stroke-width="4.498" stroke="#1b3a43" stroke-linecap="round" stroke-linejoin="round" fill="none"/>
    <path id="Path_498" data-name="Path 498" d="M175.3,407.355c1.08,22.9,28.008,21.8,28.008,21.8a16.46,16.46,0,0,1,16.46,16.459v16.46H108.349V445.61a16.459,16.459,0,0,1,16.459-16.459s26.529,1.106,27.608-21.8" fill="none" stroke="#1b3a43" stroke-linecap="round" stroke-linejoin="round" stroke-width="4.498"/>
    <g id="Group_380" data-name="Group 380">
      <path id="Path_499" data-name="Path 499" d="M92.34,374.445h26.288a45.43,45.43,0,0,1,90.86,0H234.44" fill="none" stroke="#d0df65" stroke-linecap="round" stroke-linejoin="round" stroke-width="4.498"/>
      <line id="Line_221" data-name="Line 221" y1="27.944" transform="translate(164.058 301.072)" fill="none" stroke="#d0df65" stroke-linecap="round" stroke-linejoin="round" stroke-width="4.498"/>
      <path id="Path_500" data-name="Path 500" d="M152.667,311.906l11.669-13.515,11.113,13.515" fill="none" stroke="#d0df65" stroke-linecap="round" stroke-linejoin="round" stroke-width="4.498"/>
      <path id="Path_501" data-name="Path 501" d="M220.925,362.776l13.515,11.669-13.515,11.113" fill="none" stroke="#d0df65" stroke-linecap="round" stroke-linejoin="round" stroke-width="4.498"/>
      <path id="Path_502" data-name="Path 502" d="M103.868,385.836,90.353,374.168l13.515-11.113" fill="none" stroke="#d0df65" stroke-linecap="round" stroke-linejoin="round" stroke-width="4.498"/>
    </g>
  </g>
</svg>
