<svg xmlns="http://www.w3.org/2000/svg" width="193.485" height="188.635" viewBox="0 0 193.485 188.635">
  <g id="Group_377" data-name="Group 377" transform="translate(-1161.91 -82.059)">
    <rect id="Rectangle_232" data-name="Rectangle 232" width="20.746" height="23.479" transform="translate(1288.833 150.54)" fill="#eaeaea"/>
    <rect id="Rectangle_233" data-name="Rectangle 233" width="20.746" height="4.913" transform="translate(1288.833 156.906)" fill="#cccece"/>
    <path id="Path_485" data-name="Path 485" d="M1171.082,270.083v-5.4c0-5.764-.651-10.46,5.783-11.67,0,0,19.99-.623,20.675-15.147v-4.09l8.684.241s-2.036,9.785,9.052,13.8c0,0,5.941,1.876,9.959,1.5,0,0,8.521.178,8.883,12v8.756Z" fill="#efefef"/>
    <path id="Path_486" data-name="Path 486" d="M1191.588,237.055a16.185,16.185,0,0,0,15.74,0l-.93-4.62s-9.539,2.328-14.337-.26Z" fill="#cccece"/>
    <rect id="Rectangle_234" data-name="Rectangle 234" width="107.882" height="7.042" transform="translate(1245.265 149.105)" fill="#eaeaea"/>
    <circle id="Ellipse_81" data-name="Ellipse 81" cx="20.852" cy="20.852" r="20.852" transform="translate(1178.606 192.07)" stroke-width="4.498" stroke="#1b3a43" stroke-linecap="round" stroke-linejoin="round" fill="none"/>
    <path id="Path_487" data-name="Path 487" d="M1206.581,233.775c.684,14.512,17.747,13.811,17.747,13.811a10.429,10.429,0,0,1,10.429,10.429v10.43h-70.6v-10.43a10.429,10.429,0,0,1,10.429-10.429s16.809.7,17.494-13.811" fill="none" stroke="#1b3a43" stroke-linecap="round" stroke-linejoin="round" stroke-width="4.498"/>
    <g id="Group_375" data-name="Group 375">
      <rect id="Rectangle_235" data-name="Rectangle 235" width="107.882" height="71.839" transform="translate(1245.265 84.308)" stroke-width="4.498" stroke="#1b3a43" stroke-linecap="round" stroke-linejoin="round" fill="none"/>
      <rect id="Rectangle_236" data-name="Rectangle 236" width="20.746" height="17.872" transform="translate(1288.833 156.147)" stroke-width="4.498" stroke="#1b3a43" stroke-linecap="round" stroke-linejoin="round" fill="none"/>
      <line id="Line_215" data-name="Line 215" x2="47.371" transform="translate(1275.52 174.019)" fill="none" stroke="#1b3a43" stroke-linecap="round" stroke-linejoin="round" stroke-width="4.498"/>
      <line id="Line_216" data-name="Line 216" x1="107.882" transform="translate(1245.265 144.933)" fill="none" stroke="#1b3a43" stroke-linecap="round" stroke-linejoin="round" stroke-width="4.498"/>
    </g>
    <g id="Group_376" data-name="Group 376">
      <line id="Line_217" data-name="Line 217" x2="52.997" transform="translate(1272.707 101.296)" fill="none" stroke="#d0df65" stroke-linecap="round" stroke-linejoin="round" stroke-width="4.498"/>
      <line id="Line_218" data-name="Line 218" x2="52.997" transform="translate(1272.707 114.302)" fill="none" stroke="#d0df65" stroke-linecap="round" stroke-linejoin="round" stroke-width="4.498"/>
      <line id="Line_219" data-name="Line 219" x2="52.997" transform="translate(1272.707 127.307)" fill="none" stroke="#d0df65" stroke-linecap="round" stroke-linejoin="round" stroke-width="4.498"/>
    </g>
    <path id="Path_488" data-name="Path 488" d="M1262.938,250.205s37.32,4.091,37.43-53.862" fill="none" stroke="#1b3a43" stroke-linecap="round" stroke-linejoin="round" stroke-width="4.498"/>
    <path id="Path_489" data-name="Path 489" d="M1291.7,209.349l8.563-14.9,7.8,14.417" fill="none" stroke="#1b3a43" stroke-linecap="round" stroke-linejoin="round" stroke-width="4.498"/>
    <path id="Path_490" data-name="Path 490" d="M1225.647,109.33s-37.32-4.091-37.43,53.862" fill="none" stroke="#1b3a43" stroke-linecap="round" stroke-linejoin="round" stroke-width="4.498"/>
    <path id="Path_491" data-name="Path 491" d="M1196.889,150.186l-8.563,14.9-7.8-14.417" fill="none" stroke="#1b3a43" stroke-linecap="round" stroke-linejoin="round" stroke-width="4.498"/>
  </g>
</svg>
