<svg xmlns="http://www.w3.org/2000/svg" width="206.551" height="198.271" viewBox="0 0 206.551 198.271">
  <g id="Group_374" data-name="Group 374" transform="translate(-657.42 -55.88)">
    <rect id="Rectangle_228" data-name="Rectangle 228" width="39.016" height="37.771" transform="translate(741.188 214.132)" fill="#efefef"/>
    <rect id="Rectangle_229" data-name="Rectangle 229" width="38.856" height="8.196" transform="translate(741.268 218.43)" fill="#cccece"/>
    <rect id="Rectangle_230" data-name="Rectangle 230" width="200.289" height="14.553" transform="translate(661.434 203.682)" fill="#efefef"/>
    <g id="Group_373" data-name="Group 373">
      <g id="Group_369" data-name="Group 369">
        <path id="Path_481" data-name="Path 481" d="M807.627,83.881h54.1V218.43H659.669V83.881h55.817" fill="none" stroke="#1b3a43" stroke-linecap="round" stroke-linejoin="round" stroke-width="4.498"/>
        <rect id="Rectangle_231" data-name="Rectangle 231" width="38.856" height="33.473" transform="translate(741.268 218.43)" stroke-width="4.498" stroke="#1b3a43" stroke-linecap="round" stroke-linejoin="round" fill="none"/>
        <line id="Line_213" data-name="Line 213" x2="88.722" transform="translate(716.335 251.903)" fill="none" stroke="#1b3a43" stroke-linecap="round" stroke-linejoin="round" stroke-width="4.498"/>
        <line id="Line_214" data-name="Line 214" x1="202.054" transform="translate(659.669 197.427)" fill="none" stroke="#1b3a43" stroke-linecap="round" stroke-linejoin="round" stroke-width="4.498"/>
      </g>
      <g id="Group_370" data-name="Group 370">
        <path id="Path_482" data-name="Path 482" d="M784.667,88.1a22.927,22.927,0,0,0-.116-2.3l7.189-3.949c-1.929-10.034-8.212-14.946-8.212-14.946l-7.039,3.868a22.451,22.451,0,0,0-5.435-3.309V59.532c-9.722-3.141-17.052,0-17.052,0v7.7a22.444,22.444,0,0,0-5.575,3.191l-6.646-3.755c-7.517,6.921-8.387,14.848-8.387,14.848l6.586,3.721a21.863,21.863,0,0,0-.016,5.613L733.317,94.5c1.929,10.034,8.211,14.946,8.211,14.946l6.8-3.736A22.415,22.415,0,0,0,754,108.977v7.846c9.723,3.141,17.052,0,17.052,0v-8.087a22.45,22.45,0,0,0,5.116-3.059l7.105,4.014c7.518-6.921,8.388-14.848,8.388-14.848L784.5,90.8A22.6,22.6,0,0,0,784.667,88.1Z" fill="none" stroke="#d0df65" stroke-miterlimit="10" stroke-width="4.498"/>
        <circle id="Ellipse_78" data-name="Ellipse 78" cx="9.598" cy="9.598" r="9.598" transform="translate(752.93 78.579)" fill="none" stroke="#d0df65" stroke-miterlimit="10" stroke-width="4.498"/>
      </g>
      <g id="Group_371" data-name="Group 371">
        <path id="Path_483" data-name="Path 483" d="M741.856,140.947a22.618,22.618,0,0,0-.116-2.3l7.189-3.95c-1.929-10.034-8.211-14.945-8.211-14.945l-7.04,3.868a22.4,22.4,0,0,0-5.434-3.31v-7.937c-9.723-3.141-17.053,0-17.053,0v7.7a22.358,22.358,0,0,0-5.574,3.191l-6.646-3.755c-7.518,6.92-8.388,14.847-8.388,14.847l6.587,3.721a21.871,21.871,0,0,0-.016,5.614l-6.648,3.652c1.929,10.034,8.212,14.945,8.212,14.945l6.8-3.735a22.422,22.422,0,0,0,5.674,3.269v7.846c9.723,3.141,17.053,0,17.053,0V161.58a22.411,22.411,0,0,0,5.116-3.058l7.105,4.013c7.517-6.92,8.387-14.847,8.387-14.847l-7.162-4.046A22.6,22.6,0,0,0,741.856,140.947Z" fill="none" stroke="#d0df65" stroke-miterlimit="10" stroke-width="4.498"/>
        <circle id="Ellipse_79" data-name="Ellipse 79" cx="9.598" cy="9.598" r="9.598" transform="translate(710.119 131.424)" fill="none" stroke="#d0df65" stroke-miterlimit="10" stroke-width="4.498"/>
      </g>
      <g id="Group_372" data-name="Group 372">
        <path id="Path_484" data-name="Path 484" d="M828.208,140.947a22.618,22.618,0,0,0-.116-2.3l7.189-3.95c-1.929-10.034-8.211-14.945-8.211-14.945l-7.04,3.868a22.4,22.4,0,0,0-5.434-3.31v-7.937c-9.723-3.141-17.053,0-17.053,0v7.7a22.358,22.358,0,0,0-5.574,3.191l-6.646-3.755c-7.518,6.92-8.388,14.847-8.388,14.847l6.587,3.721a21.871,21.871,0,0,0-.016,5.614l-6.648,3.652c1.929,10.034,8.212,14.945,8.212,14.945l6.8-3.735a22.422,22.422,0,0,0,5.674,3.269v7.846c9.723,3.141,17.053,0,17.053,0V161.58a22.432,22.432,0,0,0,5.116-3.058l7.105,4.013c7.517-6.92,8.387-14.847,8.387-14.847l-7.163-4.046A22.617,22.617,0,0,0,828.208,140.947Z" fill="none" stroke="#d0df65" stroke-miterlimit="10" stroke-width="4.498"/>
        <circle id="Ellipse_80" data-name="Ellipse 80" cx="9.598" cy="9.598" r="9.598" transform="translate(796.471 131.424)" fill="none" stroke="#d0df65" stroke-miterlimit="10" stroke-width="4.498"/>
      </g>
    </g>
  </g>
</svg>
