<svg xmlns="http://www.w3.org/2000/svg" width="221.85" height="170.966" viewBox="0 0 221.85 170.966">
  <g id="Group_391" data-name="Group 391" transform="translate(-351.162 -78.579)">
    <path id="Path_503" data-name="Path 503" d="M570.763,171.064H522.644s.214-9.89,9.11-10.995,29.9,0,29.9,0S570.763,159.742,570.763,171.064Z" fill="#efefef"/>
    <path id="Rectangle_238" data-name="Rectangle 238" d="M0,0H48.12a0,0,0,0,1,0,0V3.532a13.05,13.05,0,0,1-13.05,13.05H12.433A12.433,12.433,0,0,1,0,4.149V0A0,0,0,0,1,0,0Z" transform="translate(522.643 230.714)" fill="#efefef"/>
    <rect id="Rectangle_239" data-name="Rectangle 239" width="39.016" height="33.164" transform="translate(435.345 214.132)" fill="#efefef"/>
    <rect id="Rectangle_240" data-name="Rectangle 240" width="38.856" height="8.196" transform="translate(435.424 214.132)" fill="#cccece"/>
    <rect id="Rectangle_241" data-name="Rectangle 241" width="154.927" height="14.553" transform="translate(353.411 199.579)" fill="#efefef"/>
    <path id="Path_504" data-name="Path 504" d="M522.644,214.132" fill="none" stroke="#231f20" stroke-linecap="round" stroke-linejoin="round" stroke-width="4.498"/>
    <path id="Path_505" data-name="Path 505" d="M556.294,147.48V80.828H353.411v133.3l154.927-.046" fill="none" stroke="#1b3a43" stroke-linejoin="round" stroke-width="4.498"/>
    <rect id="Rectangle_242" data-name="Rectangle 242" width="39.016" height="33.164" transform="translate(435.345 214.132)" stroke-width="4.498" stroke="#1b3a43" stroke-linecap="round" stroke-linejoin="round" fill="none"/>
    <line id="Line_243" data-name="Line 243" x2="89.086" transform="translate(410.309 247.296)" fill="none" stroke="#1b3a43" stroke-linecap="round" stroke-linejoin="round" stroke-width="4.498"/>
    <line id="Line_244" data-name="Line 244" x1="154.927" transform="translate(353.411 193.324)" fill="none" stroke="#1b3a43" stroke-linejoin="round" stroke-width="4.498"/>
    <path id="Path_506" data-name="Path 506" d="M522.644,193.324" fill="none" stroke="#231f20" stroke-linecap="round" stroke-linejoin="round" stroke-width="4.498"/>
    <path id="Path_507" data-name="Path 507" d="M556.294,193.324" fill="none" stroke="#231f20" stroke-linecap="round" stroke-linejoin="round" stroke-width="4.498"/>
    <rect id="Rectangle_243" data-name="Rectangle 243" width="48.12" height="87.227" rx="9.11" transform="translate(522.643 160.069)" stroke-width="4.498" stroke="#1b3a43" stroke-linecap="round" stroke-linejoin="round" fill="none"/>
    <rect id="Rectangle_244" data-name="Rectangle 244" width="105.506" height="70.15" transform="translate(402.831 103.219)" fill="none" stroke="#1b3a43" stroke-linejoin="round" stroke-width="4.498"/>
    <line id="Line_245" data-name="Line 245" x2="105.506" transform="translate(402.831 115.292)" fill="none" stroke="#1b3a43" stroke-linejoin="round" stroke-width="4.498"/>
    <g id="Group_389" data-name="Group 389">
      <line id="Line_246" data-name="Line 246" x2="59.174" transform="translate(426.363 130.898)" fill="none" stroke="#d0df65" stroke-linecap="round" stroke-linejoin="round" stroke-width="4.498"/>
      <line id="Line_247" data-name="Line 247" x2="59.174" transform="translate(426.363 142.521)" fill="none" stroke="#d0df65" stroke-linecap="round" stroke-linejoin="round" stroke-width="4.498"/>
      <line id="Line_248" data-name="Line 248" x2="59.174" transform="translate(426.363 154.144)" fill="none" stroke="#d0df65" stroke-linecap="round" stroke-linejoin="round" stroke-width="4.498"/>
    </g>
    <g id="Group_390" data-name="Group 390">
      <line id="Line_249" data-name="Line 249" x2="25.035" transform="translate(534.186 187.373)" fill="none" stroke="#d0df65" stroke-linecap="round" stroke-linejoin="round" stroke-width="4.498"/>
      <line id="Line_250" data-name="Line 250" x2="25.035" transform="translate(534.186 198.996)" fill="none" stroke="#d0df65" stroke-linecap="round" stroke-linejoin="round" stroke-width="4.498"/>
      <line id="Line_251" data-name="Line 251" x2="25.035" transform="translate(534.186 210.62)" fill="none" stroke="#d0df65" stroke-linecap="round" stroke-linejoin="round" stroke-width="4.498"/>
    </g>
    <line id="Line_252" data-name="Line 252" x2="11.705" transform="translate(540.851 170.889)" fill="none" stroke="#1b3a43" stroke-linecap="round" stroke-linejoin="round" stroke-width="4.498"/>
    <line id="Line_253" data-name="Line 253" x2="48.12" transform="translate(522.643 230.714)" fill="none" stroke="#1b3a43" stroke-linejoin="round" stroke-width="4.498"/>
  </g>
</svg>
