<?xml version="1.0" encoding="utf-8"?>
<!-- Generator: Adobe Illustrator 22.1.0, SVG Export Plug-In . SVG Version: 6.00 Build 0)  -->
<svg version="1.1" id="Layer_1" xmlns="http://www.w3.org/2000/svg" xmlns:xlink="http://www.w3.org/1999/xlink" x="0px" y="0px"
	 viewBox="0 0 159.4 98" style="enable-background:new 0 0 159.4 98;" xml:space="preserve">
<style type="text/css">
	.st0{opacity:0.2;}
	.st1{fill:#016848;}
</style>
<g class="st0">
	<path class="st1" d="M157.9,56.7L157.9,56.7c0-0.1,0-0.1,0-0.2c0,0,0-0.1-0.1-0.1c0,0,0-0.1-0.1-0.1c0-0.1-0.1-0.1-0.2-0.2
		c0,0,0,0-0.1-0.1s-0.2-0.1-0.3-0.2l0,0l-56.9-19c-0.2-0.1-0.4-0.1-0.5,0c0,0,0,0-0.1,0c-0.1,0-0.1,0-0.2,0.1
		c-0.1,0-0.1,0.1-0.2,0.1c0,0,0,0-0.1,0l0,0l0,0L64.5,68.9c0,0,0,0.1-0.1,0.1l-0.1,0.1l-0.1,0.1l0,0.1c0,0.1,0,0.1,0,0.2l0,0l0,0.1
		c0,0.1,0,0.1,0,0.2c0,0.1,0.1,0.2,0.1,0.2s0,0,0,0.1c0,0.1,0.1,0.2,0.2,0.2l0,0c0.1,0.1,0.1,0.1,0.2,0.1l0,0l45.5,21.5l0,0l0,0
		c0.1,0,0.1,0,0.2,0c0.1,0,0.1,0,0.2,0c0.2,0,0.4-0.1,0.6-0.2l0,0l0,0l0,0l0,0l46.4-34.2l0,0l0.1-0.1c0,0,0.1-0.1,0.1-0.2
		c0,0,0-0.1,0.1-0.1c0-0.1,0.1-0.1,0.1-0.2c0,0,0,0,0-0.1C157.9,56.8,157.9,56.8,157.9,56.7C157.9,56.8,157.9,56.8,157.9,56.7z
		 M149.8,55.4l-45.7-2.1l-2.8-14.1L149.8,55.4z M99.4,39.8l2.7,14L69.9,66.7L99.4,39.8z M67.6,69.7l34.9-14l6.6,33.6L67.6,69.7z
		 M111.3,89.3l-6.7-33.9l49.6,2.3L111.3,89.3z"/>
	<path class="st1" d="M90.3,28.1V28l0,0c0-0.1-0.1-0.2-0.2-0.3l0,0c-0.1-0.1-0.2-0.2-0.2-0.2l0,0c-0.1-0.1-0.2-0.1-0.3-0.1l-67.4-14
		L0,0v2.3l20.4,12.3L0,40.3v4.2L0.6,43l82.8-12.8L0,73.1v2.2l89.8-46.2l0,0c0.1,0,0.1-0.1,0.2-0.1c0,0,0.1,0,0.1-0.1
		s0.1-0.1,0.1-0.2l0.1-0.1v-0.1c0-0.1,0-0.1,0-0.2l0,0C90.4,28.2,90.3,28.2,90.3,28.1z M44.3,34.2L2.2,40.8l20-25.3l61.5,12.7
		L44.3,34.2z"/>
</g>
</svg>
