<?xml version="1.0" encoding="utf-8"?>
<!-- Generator: Adobe Illustrator 22.1.0, SVG Export Plug-In . SVG Version: 6.00 Build 0)  -->
<svg version="1.1" id="Layer_1" xmlns="http://www.w3.org/2000/svg" xmlns:xlink="http://www.w3.org/1999/xlink" x="0px" y="0px"
	 viewBox="0 0 459.6 272" style="enable-background:new 0 0 459.6 272;" xml:space="preserve">
<style type="text/css">
	.st0{fill:#016848;}
	.st1{fill:#1A3A44;}
	.st2{fill:#D0DF63;}
	.st3{fill:#C5E8F3;}
</style>
<g>
	<path id="Path_1913" class="st0" d="M270.9,125.4L198,59.9l-48.9,56.5L270.9,125.4z"/>
	<path id="Path_1914" class="st1" d="M124.9,175.4l146-50l-121.8-9L124.9,175.4z"/>
	<path id="Path_1915" class="st2" d="M198,59.9L0,3.3l149.1,113L198,59.9z"/>
	<path id="Path_1916" class="st3" d="M124.9,175.4L0,3.3l149.1,113L124.9,175.4z"/>
	<path id="Path_1929" class="st3" d="M362.7,47.7l-85,141.5l139.9,1.2L362.7,47.7z"/>
	<polygon class="st1" points="459.6,133.9 417.5,190.4 459.6,260.4 	"/>
	<polygon class="st2" points="459.6,85 362.7,47.7 417.5,190.4 459.6,133.9 	"/>
	<polygon class="st0" points="459.6,260.4 417.5,190.4 277.6,189.2 459.6,264.4 	"/>
</g>
</svg>
