<?xml version="1.0" encoding="utf-8"?>
<!-- Generator: Adobe Illustrator 22.1.0, SVG Export Plug-In . SVG Version: 6.00 Build 0)  -->
<svg version="1.1" id="Layer_1" xmlns="http://www.w3.org/2000/svg" xmlns:xlink="http://www.w3.org/1999/xlink" x="0px" y="0px"
	 viewBox="0 0 480.9 407.5" style="enable-background:new 0 0 480.9 407.5;" xml:space="preserve">
<style type="text/css">
	.st0{opacity:0.2;}
	.st1{fill:#016848;}
</style>
<g class="st0">
	<path class="st1" d="M454.3,17.7c0-0.1,0-0.1,0-0.2v-0.1l0,0c0,0,0-0.1-0.1-0.1c0,0,0-0.1-0.1-0.1c0-0.1-0.1-0.1-0.1-0.2
		c0,0,0,0-0.1-0.1l0,0c-0.1-0.1-0.2-0.1-0.2-0.1l0,0c-0.1,0-0.2-0.1-0.3-0.1L349.3,11l0,0c-0.1,0-0.1,0-0.2,0c-0.1,0-0.2,0-0.3,0.1
		c0,0,0,0-0.1,0l-0.1,0.1l-0.1,0.1l-0.1,0.1l-0.1,0.1l0,0c0,0,0,0,0,0.1v0.1l-13.8,49l0,0l0,0l0,0c0,0.1,0,0.2,0,0.2s0,0,0,0.1
		s0,0.2,0.1,0.3l0,0c0,0.1,0.1,0.1,0.1,0.2l0,0c0.1,0.1,0.2,0.2,0.3,0.2l77.1,41.2h0.1h0.1c0.1,0,0.1,0,0.2,0l0,0l0,0l0,0l0,0
		c0.1,0,0.2,0,0.3-0.1h0.1c0.1,0,0.1-0.1,0.2-0.1l0,0l0,0l0.1-0.1c0,0,0-0.1,0.1-0.1l0,0L454.2,18l0,0c0-0.1,0-0.1,0.1-0.2
		C454.3,17.7,454.3,17.7,454.3,17.7z M412.5,99.6L398,63.5l-1.9-4.6l54.6-38.3L412.5,99.6z M349.7,13.8l42.9,43.8l-55.9,2.2
		L349.7,13.8z M450.4,18.4L395,57.2L351.7,13L450.4,18.4z M339.1,61.8l55.1-2.2l4.4,10.9l11.9,29.4L339.1,61.8z"/>
	<path class="st1" d="M348.8,337.9L348.8,337.9c0-0.2,0-0.2-0.1-0.3c0,0,0,0,0-0.1l0,0c0-0.1-0.1-0.2-0.1-0.2s0,0-0.1,0
		c-0.1-0.1-0.1-0.1-0.2-0.2l0,0l-70.7-37.4c-0.1,0-0.2-0.1-0.2-0.1s0,0-0.1,0s-0.2,0-0.4,0h-0.1c-0.1,0-0.2,0.1-0.3,0.1l0,0
		l-42.3,29.6c0,0,0,0-0.1,0.1c-0.1,0-0.1,0.1-0.2,0.1c0,0,0,0.1-0.1,0.1l-0.1,0.1l0,0v0.1c0,0.1,0,0.1,0,0.2v0.1c0,0.1,0,0.1,0,0.2
		l0,0c0,0,0,0,0,0.1s0,0.1,0.1,0.2l0.1,0.1c0,0,0,0,0.1,0.1l74.5,73c0.2,0.2,0.4,0.3,0.7,0.3c0.2,0,0.3,0,0.5-0.1
		c0.3-0.2,0.5-0.4,0.5-0.8l38.4-64.9c0-0.1,0.1-0.1,0.1-0.2l0,0l0,0C348.8,338.1,348.8,338,348.8,337.9z M341.9,335.9l-43.8-7.2
		l-17.8-25.4L341.9,335.9z M276.9,301.9l18.8,26.8l-30.6,0.2l-27,0.2L276.9,301.9z M237.3,331.1l29.3-0.2l30.1-0.2l11.2,69.6
		L237.3,331.1z M309.9,400l-11.2-69.1l47.5,7.8L309.9,400z"/>
	<path class="st1" d="M366.2,135.2c0-0.1,0-0.1,0-0.2s0-0.1,0-0.1v-0.1l0,0l-0.1-0.1l-0.1-0.1c0,0-0.1,0-0.1-0.1
		c-0.1,0-0.1-0.1-0.2-0.1l0,0L128.2,33.6l0,0c-0.1,0-0.2-0.1-0.4-0.1h-0.1c-0.1,0-0.2,0-0.3,0.1l0,0l0,0l0,0L1.5,100.7v2.3
		l124.7-66.5l-13.8,49.1l-25.1,89.6L1.5,171v2l86,4.2l8.2,11.8l80.8,115.3l-175-82.4v2.2l177.6,83.6c0,0,0.1,0,0.2,0s0.1,0,0.2,0.1
		h0.1c0.1,0,0.3,0,0.4-0.1c0,0,0.1,0,0.1-0.1c0.1,0,0.1-0.1,0.2-0.1L366,136l0,0l0.1-0.1l0.1-0.1c0,0,0-0.1,0.1-0.1
		c0-0.1,0-0.1,0-0.2l0,0C366.2,135.3,366.2,135.3,366.2,135.2z M128.4,35.9l233.1,98.9L89.4,175.1L128.4,35.9z M179.7,305.3
		L97.6,188.2L89.8,177l272.4-40.3L179.7,305.3z"/>
</g>
</svg>
