<?xml version="1.0" encoding="utf-8"?>
<!-- Generator: Adobe Illustrator 22.1.0, SVG Export Plug-In . SVG Version: 6.00 Build 0)  -->
<svg version="1.1" id="Layer_1" xmlns="http://www.w3.org/2000/svg" xmlns:xlink="http://www.w3.org/1999/xlink" x="0px" y="0px"
	 viewBox="0 0 865.6 380.5" style="enable-background:new 0 0 865.6 380.5;" xml:space="preserve">
<style type="text/css">
	.st0{opacity:0.2;}
	.st1{fill:#016848;}
</style>
<g class="st0">
	<path class="st1" d="M619.4,279.3L619.4,279.3c0-0.1,0-0.1,0-0.2c0,0,0-0.1-0.1-0.1c0,0,0-0.1-0.1-0.1c0-0.1-0.1-0.1-0.1-0.2
		c0,0,0-0.1-0.1-0.1c-0.1-0.1-0.2-0.1-0.3-0.2l0,0l-159-54.2c-0.2-0.1-0.4-0.1-0.5,0c0,0,0,0-0.1,0s-0.1,0-0.2,0.1
		c-0.1,0-0.1,0.1-0.2,0.1l0,0l0,0l0,0l-98.3,88.4c0,0,0,0.1-0.1,0.1l-0.1,0.1c0,0.1-0.1,0.1-0.1,0.2v0.1c0,0.1,0,0.1,0,0.2l0,0v0.1
		c0,0.1,0,0.1,0,0.2c0,0,0,0.1,0.1,0.1c0,0,0,0.1,0.1,0.1c0.1,0.2,0.2,0.3,0.4,0.4l0,0l126.7,60.7c0,0,0,0,0.1,0l0,0h0.1
		c0.1,0,0.1,0,0.2,0c0.2,0,0.4-0.1,0.6-0.2l0,0l0,0l0,0l0,0L619,280.3l0,0c0,0,0-0.1,0.1-0.1c0.1-0.1,0.1-0.1,0.1-0.2
		c0,0,0-0.1,0.1-0.1c0-0.1,0.1-0.1,0.1-0.2c0,0,0,0,0-0.1c0,0,0,0,0-0.1C619.4,279.5,619.4,279.4,619.4,279.3z M611.3,278.1
		L469,270.6l-8.3-43.8L611.3,278.1z M458.7,227.2l8.3,43.7l-101.1,39.8L458.7,227.2z M363.7,313.7l103.8-40.8l19.1,99.7L363.7,313.7
		z M488.6,372.6l-19.2-100l146.2,7.7L488.6,372.6z"/>
	<path class="st1" d="M865.2,279c0.1-0.1,0.2-0.3,0.2-0.5l0,0l0,0c0-0.2-0.1-0.5-0.2-0.6l0,0c-0.1-0.1-0.1-0.2-0.2-0.2l0,0
		l-121.7-74.8h-0.1h-0.1c-0.1,0-0.2,0-0.3-0.1l0,0c-0.1,0-0.2,0-0.3,0l0,0l0,0h-0.1l-76.7,24.6c-0.3,0-0.6,0.2-0.7,0.5
		c0,0.1-0.1,0.1-0.1,0.2l0,0c0,0.1,0,0.2,0,0.3l0,0l0,0c0,0.1,0,0.2,0.1,0.2c0,0.1,0.1,0.3,0.2,0.4l57.4,64.7l0,0l0.1,0.1l0,0
		c0.1,0.1,0.2,0.2,0.3,0.2l0,0c0.1,0,0.2,0.1,0.4,0.1h0.1l141.2-14.7c0,0,0,0,0.1,0s0.1,0,0.2-0.1c0,0,0.1,0,0.1-0.1
		c0.1,0,0.1-0.1,0.2-0.1l0.1-0.1C865.1,279.1,865.1,279.1,865.2,279z M723.9,292.1l-15.8-54.9L858.9,278L723.9,292.1z M706.4,234.8
		l-36.5-6.7l68.6-22L706.4,234.8z M705.9,236.7l15.1,52.5l-52.6-59.3L705.9,236.7z M708.7,235.4l34-30.4l115.1,70.8L708.7,235.4z"/>
	<path class="st1" d="M424.3,181.8v-0.1l0,0c-0.1-0.3-0.4-0.6-0.7-0.7l-188.8-38.9L0,0.4v2.3l232.9,140.6l-7.6,9.6l-52.5,66.3L0,7.8
		V11l170.1,208.1L0,175.1v2.1l171.4,44.3l-12.3,31.6l-30.4,78.4l-73.9-78.6L0,194.7v2.9l51.5,54.7l75.1,79.8L0,323.3v2l129,9
		c0,0,0,0,0.1,0l0,0l0,0l0,0l0,0l0,0l0,0c0.1,0,0.1,0,0.2,0l0,0c0,0,0,0,0.1,0h0.1l0,0c0,0,0,0,0.1,0l0,0l294.3-151.4l0,0
		c0.1,0,0.1-0.1,0.1-0.1l0.1-0.1l0.1-0.1c0-0.1,0.1-0.1,0.1-0.2v-0.1c0-0.1,0-0.1,0-0.2l0,0C424.4,182,424.3,181.9,424.3,181.8z
		 M130.9,331.3l12.5-32.2l30-77.4L417.3,184L130.9,331.3z M175.1,219.4l39.6-50l20.1-25.3l182.9,37.7L175.1,219.4z"/>
</g>
</svg>
