<?xml version="1.0" encoding="utf-8"?>
<!-- Generator: Adobe Illustrator 22.1.0, SVG Export Plug-In . SVG Version: 6.00 Build 0)  -->
<svg version="1.1" id="Layer_1" xmlns="http://www.w3.org/2000/svg" xmlns:xlink="http://www.w3.org/1999/xlink" x="0px" y="0px"
	 viewBox="0 0 781.3 120.7" style="enable-background:new 0 0 781.3 120.7;" xml:space="preserve">
<style type="text/css">
	.st0{opacity:0.2;}
	.st1{fill:#016848;}
</style>
<g class="st0">
	<path class="st1" d="M541.1,59.3c0.1,0,0.1,0,0.2-0.1c0,0,0.1,0,0.1-0.1c0.1,0,0.1-0.1,0.2-0.1l0.1-0.1c0-0.1,0.1-0.1,0.1-0.2v-0.1
		l0,0c0-0.1,0.1-0.2,0-0.3l0,0l0,0c0-0.1,0-0.2-0.1-0.3c0,0,0-0.1-0.1-0.1c0-0.1-0.1-0.1-0.1-0.2l-0.1-0.1l-0.1-0.1L458.9,4.7l0,0
		c-0.1-0.1-0.2-0.1-0.4-0.1h-0.1c-0.1,0-0.3,0-0.4,0L400.7,24l0,0c-0.1,0-0.1,0-0.1,0.1l-0.1,0.1c0,0-0.1,0-0.1,0.1c0,0,0,0,0,0.1
		l-0.1,0.1l-0.1,0.1c0,0.1,0,0.1-0.1,0.2v0.1l0,0c0,0.1,0,0.2,0,0.3l0,0c0,0.1,0.1,0.2,0.1,0.3l0,0l26.5,45.1l0,0
		c0.1,0.1,0.2,0.2,0.3,0.3l0,0c0.1,0.1,0.2,0.1,0.4,0.1l0,0h0.1l0,0l0,0h0.1L541.1,59.3L541.1,59.3z M427.7,68.4L403.9,28l39.2,24.3
		l-6.8,7.1L427.7,68.4z M446,51.1l0.4-1.2L459.2,7l78,50L446,51.1z M444.1,50.5l-40.8-25.3L457,7L444.1,50.5z M437.1,61.4l7.9-8.3
		l84,5.5l-98.9,10.2L437.1,61.4z"/>
	<g>
		<polygon class="st1" points="132,170.8 60.1,185.6 61.9,187.2 129.7,173.4 		"/>
		<path class="st1" d="M154.5,146.5l1.5-1.6l-95.7-28.2l-8.2-2.4l92.7-39.9l30.7,49.4l1.4-1.5L146,72.6c0,0,0,0-0.1-0.1
			c-0.1-0.1-0.1-0.1-0.1-0.1l-0.1-0.1c-0.1-0.1-0.1-0.1-0.2-0.1c0,0-0.1-0.1-0.1,0c0,0,0,0-0.1-0.1L-80.1,25.9l0,0
			c-0.1,0-0.2-0.1-0.3,0l0,0c-0.1,0.1-0.1,0-0.2,0.1l-0.1,0.1c0,0,0,0-0.1,0.1c-0.1,0.1-0.1,0.1-0.2,0.2l0,0
			c-0.1,0.1-0.1,0.1-0.1,0.3l0,0l0,0l-0.1,0.1l-5.7,23.1l1.7,1.6l5.4-22.8L46.5,114l-50.9,9.4l-2.5,0.5l1.8,1.7l38.1-7l14-2.6
			l-21.3,37.9l1.5,1.4l22.3-39.6L154.5,146.5z M-75.6,28.8l217.4,44.7l-1.5,0.6l-91.1,39.3L-75.6,28.8z"/>
	</g>
	<path class="st1" d="M203,120.7l45.6-51.8l110.1-19.8l-133.3,71.6h4.2l4.1-2.2l128-68.8L319,114.3l-28.1,6.3h9.1l19.9-4.5
		c0.3-0.1,0.5-0.2,0.6-0.4l45.1-68.3v-0.1c0,0,0-0.1,0.1-0.1c0-0.1,0-0.1,0-0.2c0-0.1,0-0.1,0-0.1c0-0.1,0-0.1,0-0.2v-0.1l0,0
		c0-0.1-0.1-0.1-0.1-0.2c0,0,0-0.1-0.1-0.1l0,0l-0.1-0.1l-0.1-0.1c-0.1,0-0.1,0-0.2-0.1c-0.1,0-0.1,0-0.2-0.1c-0.1,0-0.2,0-0.3,0
		l0,0L248,66.9c-0.2,0-0.4,0.2-0.6,0.3l-47,53.4h2.6L203,120.7L203,120.7z"/>
	<path class="st1" d="M557.8,120.7l59.3-86.1l5.6,44.5l5.2,41.6h2l-5.6-44.8l-5.4-43l157.9,1.6l-142.7,86.2h3.9l140.5-84.9
		L750,120.7h2.1l29.1-86.9c0-0.1,0-0.1,0-0.2v-0.1c0-0.1,0-0.1,0-0.2v-0.1l0,0c0-0.1-0.1-0.1-0.1-0.2c-0.1-0.1-0.1-0.2-0.2-0.3l0,0
		l0,0c-0.1,0-0.1-0.1-0.2-0.1c0,0,0,0-0.1,0s-0.1,0-0.2,0h-0.1l0,0l-162.6-1.7l0,0c-0.3,0-0.5,0.1-0.7,0.3l0,0l0,0c0,0,0,0-0.1,0.1
		l-61.5,89.4L557.8,120.7L557.8,120.7z"/>
</g>
</svg>
