<?xml version="1.0" encoding="utf-8"?>
<!-- Generator: Adobe Illustrator 22.1.0, SVG Export Plug-In . SVG Version: 6.00 Build 0)  -->
<svg version="1.1" id="Layer_1" xmlns="http://www.w3.org/2000/svg" xmlns:xlink="http://www.w3.org/1999/xlink" x="0px" y="0px"
	 viewBox="0 0 173.1 416.5" style="enable-background:new 0 0 173.1 416.5;" xml:space="preserve">
<style type="text/css">
	.st0{fill:#D0DF63;}
	.st1{fill:#1A3A44;}
	.st2{fill:#016848;}
	.st3{fill:#C5E8F3;}
</style>
<g>
	<path id="Path_2476" class="st0" d="M57.7,225.3l82,42.2l-79.3,149L57.7,225.3z"/>
	<path id="Path_2479" class="st1" d="M57,125l58.7-63.2L46,44.5L57,125z"/>
	<path id="Path_2480" class="st2" d="M0,85l57,40L46,44.5L0,85z"/>
	<path id="Path_2481" class="st3" d="M31.9,0L0,85l46-40.5L31.9,0z"/>
	<path id="Path_2482" class="st0" d="M115.7,61.8L31.9,0L46,44.5L115.7,61.8z"/>
	<polygon class="st3" points="173.1,130 57.7,225.3 139.8,267.5 173.1,176.1 	"/>
	<polygon class="st2" points="173.1,176.1 139.8,267.5 173.1,264.4 	"/>
	<polygon class="st1" points="173.1,264.4 139.8,267.5 60.5,416.5 173.1,314.2 	"/>
</g>
</svg>
