<?xml version="1.0" encoding="utf-8"?>
<!-- Generator: Adobe Illustrator 22.1.0, SVG Export Plug-In . SVG Version: 6.00 Build 0)  -->
<svg version="1.1" id="Layer_1" xmlns="http://www.w3.org/2000/svg" xmlns:xlink="http://www.w3.org/1999/xlink" x="0px" y="0px"
	 viewBox="0 0 307.9 165.9" style="enable-background:new 0 0 307.9 165.9;" xml:space="preserve">
<style type="text/css">
	.st0{opacity:0.2;}
	.st1{fill:#016848;}
</style>
<g class="st0">
	<path class="st1" d="M147.2,116.7c0-0.1,0-0.1,0-0.2c0,0,0,0,0-0.1c0,0,0,0,0-0.1s-0.1-0.1-0.1-0.2L147,116c0,0,0,0,0-0.1
		l-45.4-45.3c0,0,0,0-0.1,0c0,0-0.1-0.1-0.2-0.1s-0.1-0.1-0.2-0.1s-0.1,0-0.2,0s-0.1,0-0.2,0s-0.1,0-0.2,0s-0.1,0-0.2,0
		c0,0,0,0-0.1,0L0.6,114.6c0,0,0,0-0.1,0s-0.1,0.1-0.2,0.1l-0.1,0.1l-0.1,0.1c0,0-0.1,0.1-0.1,0.2v0.1c0,0,0,0,0,0.1s0,0.1,0,0.2
		s0,0.1,0,0.2c0,0,0,0,0,0.1v0.1c0,0,0,0.1,0.1,0.1c0,0.1,0.1,0.1,0.1,0.2l0.1,0.1c0,0,0.1,0.1,0.2,0.1c0,0,0,0,0.1,0.1l86.2,44.9
		c0,0,0,0,0.1,0c0,0,0,0,0.1,0s0.2,0.1,0.3,0.1l0,0l0,0c0.1,0,0.3,0,0.4-0.1h0.1c0,0,0.1,0,0.1-0.1l59-43.7l0,0l0,0l0,0
		c0.1,0,0.1-0.1,0.2-0.2c0,0,0-0.1,0.1-0.1l0.1-0.1l0,0v-0.1c0-0.1,0-0.1,0-0.2C147.2,116.7,147.2,116.7,147.2,116.7z M49.8,117.6
		l-5.4,0.1l56.4-44.9l43.1,43.1L49.8,117.6z M87.2,159.2L44,119.7l99.1-1.9L87.2,159.2z M41.1,117.7L5,114.9l89.1-39.4L41.1,117.7z
		 M5.8,116.9l35.2,2.8L80.8,156L5.8,116.9z"/>
	<path class="st1" d="M307.9,163.8L189.8,121l106.4-7.4l11.7,10.9v-2.7l-10.1-9.4l1.3-3l8.8-19.8v-4.9l-11.4,25.7l-58-107.6
		l69.4,23.3V24L236.7,0.1c0,0,0,0-0.1,0h-0.1h-0.1l0,0h-0.1h-0.1c0,0-0.1,0-0.1,0.1c0,0-0.1,0-0.1,0.1l-0.1,0.1c0,0-0.1,0-0.1,0.1
		l0,0c-0.1,0.1-0.1,0.2-0.1,0.2l0,0l0,0L184.1,120c-0.1,0.2-0.1,0.4-0.1,0.6c0,0,0,0,0,0.1s0.1,0.2,0.1,0.3l0,0c0,0,0,0,0,0.1
		c0.1,0.2,0.3,0.3,0.5,0.4l0,0h0.1l0,0L307.9,166L307.9,163.8L307.9,163.8z M236.5,3.3l56.2,104.2l2.3,4.2l-108.4,7.6L236.5,3.3z"/>
</g>
</svg>
