<?xml version="1.0" encoding="utf-8"?>
<!-- Generator: Adobe Illustrator 22.1.0, SVG Export Plug-In . SVG Version: 6.00 Build 0)  -->
<svg version="1.1" id="Layer_1" xmlns="http://www.w3.org/2000/svg" xmlns:xlink="http://www.w3.org/1999/xlink" x="0px" y="0px"
	 viewBox="0 0 244.1 242.8" style="enable-background:new 0 0 244.1 242.8;" xml:space="preserve">
<style type="text/css">
	.st0{opacity:0.2;}
	.st1{fill:#016848;}
</style>
<g class="st0">
	<path class="st1" d="M224.3,192.8L224.3,192.8c0-0.1,0-0.2,0-0.3v-0.1c0-0.1-0.1-0.1-0.1-0.2l0,0l-69.7-89.7
		c-0.2-0.2-0.5-0.4-0.8-0.4s-0.6,0.1-0.8,0.4l-35.8,45l0,0c-0.1,0.1-0.1,0.2-0.2,0.4c0,0,0,0,0,0.1v0.1l-5.3,87.8
		c0,0.3,0.1,0.7,0.4,0.9c0.2,0.1,0.4,0.2,0.6,0.2c0.1,0,0.2,0,0.4-0.1l110.8-43.1c0,0,0,0,0.1,0c0,0,0,0,0.1,0
		c0.1-0.1,0.2-0.1,0.3-0.3l0,0l0,0C224.3,193.3,224.3,193.1,224.3,192.8L224.3,192.8z M153.7,104.8l66.5,85.7L183.9,175l-64.4-27.3
		L153.7,104.8z M113.7,234.4l5.1-84.8l62.9,26.6l39.1,16.5L113.7,234.4z"/>
	<path class="st1" d="M244.1,22.7c0-0.1,0-0.1-0.1-0.2v-0.1c0-0.1-0.1-0.2-0.2-0.2l0,0c-0.1-0.1-0.2-0.1-0.3-0.2l0,0L190.1,0h-5.3
		l51.3,21.1L162.8,13L150.4,0h-2.8l12.8,13.4l-76,16.8L106.5,0H104L81.3,31.2v0.1l-0.1,0.1c0,0.1,0,0.1,0,0.2v0.1l0,0
		c0,0.1,0,0.1,0,0.2V32c0,0,0,0.1,0.1,0.1c0,0,0,0.1,0.1,0.1l0,0c0,0.1,0.1,0.1,0.2,0.2l0,0c0.1,0.1,0.2,0.1,0.2,0.2l0,0l83.7,37.7
		l0,0c0.1,0,0.2,0.1,0.4,0.1l0,0l0,0l0,0c0.1,0,0.2,0,0.3,0c0,0,0,0,0.1,0s0.1,0,0.2-0.1l77.3-46.6c0,0,0,0,0.1,0l0.1-0.1l0.1-0.1
		c0,0,0-0.1,0.1-0.1c0-0.1,0.1-0.1,0.1-0.2c0,0,0,0,0-0.1c0,0,0,0,0-0.1s0-0.2,0-0.2C244.1,22.8,244.1,22.8,244.1,22.7L244.1,22.7z
		 M85.2,32.1l76.2-16.9l0.6,9.5l2.7,43.1L85.2,32.1z M166.7,67.8l-3.2-52.7l76.6,8.4L166.7,67.8z"/>
	<path class="st1" d="M103.8,92.5c0-0.1,0-0.2,0-0.3v-0.1V92l0,0l-0.1-0.1l-0.1-0.1l-0.1-0.1l-0.1-0.1l0,0h-0.1c-0.1,0-0.1,0-0.2,0
		H103h-0.1L0,99.4v2l100.3-7.8l-40.9,44.2L0,124.8v2l59,12.9l20.7,99.5L0,175v2.6l80.6,65c0.2,0.1,0.4,0.2,0.6,0.2l0,0l0,0l0,0
		c0.1,0,0.2,0,0.3-0.1h0.1h0.1c0,0,0.1,0,0.1-0.1l0.1-0.1l0.1-0.1l0.1-0.1c0-0.1,0-0.1,0.1-0.2V242L103.8,92.5
		C103.8,92.6,103.8,92.6,103.8,92.5L103.8,92.5C103.8,92.6,103.8,92.5,103.8,92.5z M81,236l-20.1-96.8l40.4-43.7L81,236z"/>
</g>
</svg>
