<?xml version="1.0" encoding="utf-8"?>
<!-- Generator: Adobe Illustrator 22.1.0, SVG Export Plug-In . SVG Version: 6.00 Build 0)  -->
<svg version="1.1" id="Layer_1" xmlns="http://www.w3.org/2000/svg" xmlns:xlink="http://www.w3.org/1999/xlink" x="0px" y="0px"
	 viewBox="0 0 373.1 193.6" style="enable-background:new 0 0 373.1 193.6;" xml:space="preserve">
<style type="text/css">
	.st0{opacity:0.2;}
	.st1{fill:#016848;}
</style>
<g class="st0">
	<path class="st1" d="M373,187.8C373,187.7,373,187.7,373,187.8c0-0.1,0-0.2,0-0.3s0-0.2,0-0.2v-0.1c0-0.1-0.1-0.2-0.2-0.3
		l-28.2-32.7l0,0c-0.1-0.1-0.1-0.1-0.2-0.2l0,0c-0.1,0-0.2-0.1-0.3-0.1l0,0l0,0c-0.2,0-0.4,0-0.6,0.1l0,0l0,0
		c-0.1,0-0.1,0.1-0.2,0.2l-0.1,0.1l-0.1,0.1L330,175.1l0,0v0.1v0.1c0,0,0,0.1-0.1,0.1l0,0c0,0.1,0,0.1,0,0.2v0.1c0,0.1,0,0.2,0,0.3
		v0.1c0,0.1,0,0.1,0.1,0.2l0,0c0,0,0,0,0,0.1s0.1,0.1,0.1,0.2l0,0l9.3,7.6c0.1,0.1,0.2,0.1,0.3,0.2c0,0,0,0,0.1,0s0.1,0,0.2,0
		l31.8,4.2c0.1,0,0.2,0,0.2,0h0.1c0.1,0,0.2,0,0.2-0.1c0.1,0,0.1,0,0.1-0.1c0.1,0,0.1-0.1,0.2-0.2c0,0,0.1,0,0.1-0.1l0,0
		c0,0,0-0.1,0.1-0.1C372.9,187.9,373,187.8,373,187.8L373,187.8z M333.5,176.5l12.7-0.6l-6.1,6L333.5,176.5z M343.4,157.3l4.1,16.5
		l-14.8,0.7L343.4,157.3z M348.9,176l17.9,9.7l-24.5-3.2L348.9,176z M349.6,174.1l-3.8-15.6l21.9,25.4L349.6,174.1z"/>
	<path class="st1" d="M124,0.9c0-0.1,0-0.1,0-0.2V0.6c0,0,0,0,0-0.1s-0.1-0.1-0.1-0.2l-0.1-0.1l0,0c0,0-0.1,0-0.1-0.1L123.6,0
		c-0.1,0-0.1,0-0.2-0.1h-0.1c-0.1,0-0.2,0-0.3,0l0,0l0,0l0,0L0,26.1v2l117.4-25L81.7,24.8L32.4,54.5L0,39.1v2.2l31.7,15.1L61.4,114
		L0,49.7v2.9l64.7,67.8l0,0c0.1,0.1,0.1,0.1,0.2,0.2H65c0.1,0,0.2,0,0.3,0.1c0,0,0,0,0.1,0c0.2,0,0.3,0,0.4-0.1c0,0,0.1,0,0.1-0.1
		l0,0c0,0,0,0,0.1-0.1c0.1,0,0.1-0.1,0.1-0.1l0.1-0.1c0,0,0,0,0-0.1L123.9,1.4c0,0,0,0,0-0.1V1.2C123.9,1.1,123.9,1.1,124,0.9
		C124,1,124,0.9,124,0.9z M65.4,117.5L33.8,56l86.9-52.4L65.4,117.5z"/>
	<path class="st1" d="M27.1,193.6h12.3l-4.4-0.7l-1-0.2l79.7-21.8l-23.2,22.7h2.9l24.3-23.7l51.8-5.5l-68.9,29.1h5.1l70.8-29.9l0,0
		c0.1,0,0.1-0.1,0.1-0.1c0.1,0,0.1-0.1,0.1-0.1l0.1-0.1c0-0.1,0.1-0.1,0.1-0.2c0,0,0-0.1,0-0.2c0-0.1,0-0.1,0-0.2c0,0,0,0,0-0.1
		v-0.1v-0.1c0,0,0,0,0-0.1s0-0.1-0.1-0.2c0-0.1-0.1-0.1-0.1-0.2l-0.1-0.1l-0.1-0.1c0,0-0.1,0-0.1-0.1c-0.1,0-0.1,0-0.2-0.1
		c0,0,0,0-0.1,0l-100.3-11c0,0,0,0-0.1,0c0,0,0,0-0.1,0L0,152.3v2l73-1.7l-43.7,39L0,167.4v2.6l27.8,22.9L27.1,193.6z M166.7,162.7
		l-49.4,5.2l-34.8-14.6L166.7,162.7z M75.9,152.7l38.2,16.1l-81,22.1L75.9,152.7z"/>
	<path class="st1" d="M201.2,161.9c0,0.1,0,0.1,0,0.2c0,0.1,0,0.1,0.1,0.1c0,0.1,0.1,0.1,0.1,0.1l0,0l25.4,31.2h19.6L288,189
		l-3.8,4.5h2.6l4-4.8l11.9-0.3l4.7-0.1l-7.9,5.2h3.6l8.3-5.5l0,0c0.1,0,0.1-0.1,0.1-0.1l0.1-0.1c0,0,0.1-0.1,0.1-0.2
		c0,0,0-0.1,0.1-0.1l0,0v-0.1c0-0.1,0-0.1,0-0.2c0-0.1,0-0.1,0-0.2v-0.1l0,0c0-0.1-0.1-0.1-0.1-0.2c0-0.1-0.1-0.1-0.2-0.2l-0.1-0.1
		l-41.8-30.2l0,0c-0.1,0-0.2-0.1-0.2-0.1s0,0-0.1,0s-0.2,0-0.3,0l0,0l-66.9,4.7l0,0l0,0c0,0,0,0-0.1,0s-0.2,0-0.2,0.1
		c0,0-0.1,0-0.1,0.1c-0.1,0-0.1,0.1-0.2,0.1l-0.1,0.1l-0.1,0.1c0,0,0,0,0,0.1c0,0,0,0.1-0.1,0.1c0,0.1,0,0.1-0.1,0.2
		C201.1,161.7,201.1,161.7,201.2,161.9L201.2,161.9C201.2,161.8,201.2,161.9,201.2,161.9z M307.9,186.3l-3.4,0.1l-13.6,0.3
		l-17.6-25.5L307.9,186.3z M268.6,158.1l16.3,23.5l3,4.4l-80.1-23.6L268.6,158.1z M285.3,187.3l-46.5,5.1l-9.4,1L205,163.6
		L285.3,187.3z"/>
</g>
</svg>
