<?xml version="1.0" encoding="utf-8"?>
<!-- Generator: Adobe Illustrator 22.1.0, SVG Export Plug-In . SVG Version: 6.00 Build 0)  -->
<svg version="1.1" id="Layer_1" xmlns="http://www.w3.org/2000/svg" xmlns:xlink="http://www.w3.org/1999/xlink" x="0px" y="0px"
	 viewBox="0 0 55.8 188.3" style="enable-background:new 0 0 55.8 188.3;" xml:space="preserve">
<style type="text/css">
	.st0{fill:#D0DF63;}
	.st1{fill:#C5E8F3;}
	.st2{fill:#016848;}
	.st3{fill:#1A3A44;}
</style>
<g>
	<path id="Path_2211" class="st0" d="M8.9,10.1l45,19.8L17.7,55.4L8.9,10.1z"/>
	<path id="Path_2212" class="st1" d="M34.9-0.2l19,30.1l-45-19.8L34.9-0.2z"/>
	<path id="Path_2219" class="st0" d="M7.8,167.8l46.7,20.5l-32.9-38.8L7.8,167.8z"/>
	<path id="Path_2221" class="st1" d="M0,79.4l7.8,88.4l13.8-18.3L0,79.4z"/>
	<polygon class="st2" points="55.8,11.7 34.9,-0.2 53.9,29.9 55.8,29.7 	"/>
	<polygon class="st3" points="55.8,29.7 53.9,29.9 17.7,55.4 55.8,39.1 	"/>
	<polygon class="st3" points="55.8,136.7 21.6,149.5 54.5,188.3 55.8,166.3 	"/>
	<polygon class="st2" points="55.8,134.3 0,79.4 21.6,149.5 55.8,136.7 	"/>
</g>
</svg>
