<?xml version="1.0" encoding="utf-8"?>
<!-- Generator: Adobe Illustrator 22.1.0, SVG Export Plug-In . SVG Version: 6.00 Build 0)  -->
<svg version="1.1" id="Layer_1" xmlns="http://www.w3.org/2000/svg" xmlns:xlink="http://www.w3.org/1999/xlink" x="0px" y="0px"
	 viewBox="0 0 155.6 100.2" style="enable-background:new 0 0 155.6 100.2;" xml:space="preserve">
<style type="text/css">
	.st0{opacity:0.2;}
	.st1{fill:#016848;}
</style>
<g class="st0">
	<path class="st1" d="M155.4,43.2c0.1-0.1,0.2-0.3,0.2-0.4l0,0c0-0.1,0-0.2,0-0.3l0,0v-0.1c0-0.1,0-0.1-0.1-0.2l0,0
		c0,0,0-0.1-0.1-0.1c0-0.1-0.1-0.1-0.2-0.2l0,0c-0.2-0.1-0.4-0.2-0.6-0.2l0,0l-50.1,0.9h-0.1c-0.1,0-0.1,0-0.2,0h-0.1
		c-0.1,0-0.1,0.1-0.2,0.1l-0.1,0.1c0,0-0.1,0-0.1,0.1L91.2,57.4l-0.1,0.1c0,0,0,0.1-0.1,0.1c-0.1,0.2-0.1,0.4-0.1,0.6v0.1
		c0,0.1,0,0.1,0.1,0.2l0,0l0,0c0,0.1,0.1,0.1,0.2,0.2c0,0,0,0,0.1,0.1c0.1,0,0.1,0.1,0.2,0.1l0,0l28.3,11.3l0,0
		c0.1,0,0.2,0.1,0.3,0.1l0,0c0.1,0,0.2,0,0.3,0c0,0,0,0,0.1,0h0.1c0,0,0,0,0.1,0c0,0,0.1,0,0.1-0.1l34.4-26.7
		C155.3,43.4,155.4,43.3,155.4,43.2z M104.9,44.8l0.6,0.2l15.4,6.7L108,54.1l-13.3,2.5L104.9,44.8z M104.1,56.8l18.8-3.5L119.6,68
		l-24-9.6L104.1,56.8z M124.3,51l-13.9-6l-1.2-0.5l38.4-0.7l-9.9,3.1L124.3,51z M125.1,52.9l11.9-3.7l12.7-4l-27.8,21.6L125.1,52.9z
		"/>
	<path class="st1" d="M44.4,46.2c0-0.1,0-0.2,0-0.3c0,0,0-0.1-0.1-0.1c0-0.1,0-0.1-0.1-0.2L8.4,0.4C8.1,0.1,7.7-0.1,7.4,0L0,1.7v2
		l7.2-1.6l32.6,41.3L4.7,25.7L0,23.3v2.2l25.6,12.9l8.2,4.2L3.4,34.1L0,31.4v2.5l2.4,1.9c0.1,0.1,0.2,0.1,0.3,0.2l40.4,11.3l0,0
		c0.1,0,0.2,0,0.3,0s0.3,0,0.4-0.1h0.1c0.1-0.1,0.2-0.1,0.3-0.2l0,0l0,0c0.1-0.1,0.1-0.2,0.2-0.3l0,0C44.4,46.6,44.4,46.4,44.4,46.2
		C44.4,46.3,44.4,46.3,44.4,46.2z"/>
	<path class="st1" d="M83.2,69c0-0.1,0-0.2-0.1-0.2c0,0,0-0.1-0.1-0.1v-0.1c0,0,0,0-0.1-0.1l-0.1-0.1c-0.1-0.1-0.1-0.1-0.2-0.1
		c0,0-0.1,0-0.1-0.1c-0.1,0-0.2-0.1-0.3-0.1l-70.4-8.6h-0.1c-0.1,0-0.1,0-0.2,0c-0.1,0-0.1,0-0.2,0c0,0-0.1,0-0.1,0.1
		c-0.1,0-0.1,0.1-0.1,0.1s-0.1,0-0.1,0.1L0,70.2V73l11.9-11.2l11.3,6.8L36,76.4L0,86.2v2.1l38.2-10.4l21.4,20L0,94v2l62.3,4
		c0,0,0,0,0.1,0l0,0c0,0,0,0,0.1,0l0,0c0.3,0,0.5-0.2,0.7-0.5l19.9-29.9c0,0,0-0.1,0.1-0.2v-0.1C83.2,69.3,83.2,69.2,83.2,69
		C83.2,69.1,83.2,69.1,83.2,69C83.2,69.1,83.2,69,83.2,69z M16.3,62.1l59.1,7.2l-36.7,6.4L16.3,62.1z M62.2,97.5L41.7,78.3l-1-0.9
		l39.4-6.9L62.2,97.5z"/>
</g>
</svg>
