<svg xmlns="http://www.w3.org/2000/svg" viewBox="0 0 84 100">
  <title>
    Customization
  </title>
  <path fill="#ECEFF1" d="M3.38 17.76c-.762 0-1.38.616-1.38 1.378v60.69c0 .76.618 1.38 1.38 1.38h11.723v-2.76H4.76V31.552h66.206V59.79c.025.132.094.248.107.382.767-.625 1.712-.94 2.65-.96V19.14c0-.762-.616-1.38-1.378-1.38H3.38zm1.38 2.757h66.206v8.276H4.76v-8.276zm4.137 2.76c-.762 0-1.38.616-1.38 1.378 0 .762.618 1.38 1.38 1.38.76 0 1.38-.618 1.38-1.38 0-.762-.62-1.38-1.38-1.38zm5.517 0c-.762 0-1.38.616-1.38 1.378 0 .762.618 1.38 1.38 1.38.762 0 1.38-.618 1.38-1.38 0-.762-.618-1.38-1.38-1.38zm5.517 0c-.76 0-1.37.616-1.37 1.378 0 .762.62 1.38 1.38 1.38.76 0 1.38-.618 1.38-1.38 0-.762-.61-1.38-1.38-1.38zm27.98 10.01v.005c-.47.006-.91.26-1.16.668l-2.47 4.122c-.07.03-.14.07-.21.113L28.32 48.47c-.388.253-.623.684-.625 1.147l-.032 12.204c-2.133-.15-3.462-.55-4.268-1.02-1.018-.59-1.41-1.28-1.896-2.27-.49-.98-1.01-2.29-2.32-3.32-1.31-1.02-3.22-1.59-6.16-1.59-.5 0-.96.26-1.21.69-.25.43-.25.96 0 1.39.25.43.71.69 1.21.69 2.58 0 3.77.48 4.45 1 .67.53 1.01 1.29 1.54 2.37.54 1.09 1.34 2.47 2.97 3.42 1.5.89 3.64 1.38 6.76 1.45.09.02.18.03.27.04H42.7c.468 0 .904-.23 1.16-.62L54.15 48.3c.047-.07.086-.148.12-.227l4.12-2.473c.363-.22.605-.596.657-1.016.05-.42-.094-.842-.394-1.142L48.9 33.687c-.264-.262-.624-.406-.996-.398zm.3 3.604l7.26 7.26-2.43 1.46-6.28-6.27 1.46-2.43zm-3.58 4.23l6.61 6.61-9.25 14.17h-9.58l4.98-4.98c1.54.73 3.44.47 4.7-.79 1.61-1.6 1.61-4.25 0-5.85-1.6-1.6-4.24-1.6-5.85 0-1.26 1.26-1.52 3.16-.8 4.7l-5 5.01.03-9.6 14.17-9.26zm-5.47 10.7c.35 0 .7.14.98.42.55.55.55 1.4 0 1.95s-1.4.55-1.95 0-.55-1.4 0-1.95c.28-.27.63-.41.98-.41zm21.91 7.33c-.76 0-1.38.62-1.38 1.38V63c-.85.265-1.68.6-2.47 1.013l-1.73-1.73c-.54-.54-1.41-.54-1.95 0l-4.25 4.25c-.54.54-.54 1.413 0 1.95l1.74 1.74c-.42.797-.76 1.62-1.03 2.475h-2.46c-.76 0-1.38.62-1.38 1.38v6.02c0 .762.62 1.38 1.38 1.38H50c.265.857.604 1.68 1.02 2.48l-1.74 1.732c-.54.54-.54 1.41 0 1.95l4.255 4.25c.538.54 1.41.54 1.95 0l1.74-1.733c.79.415 1.615.75 2.468 1.018v2.466c0 .76.62 1.38 1.38 1.38H67.1c.76 0 1.38-.62 1.38-1.38v-2.47c.85-.26 1.68-.6 2.47-1.01l1.735 1.73c.54.54 1.41.54 1.95 0l4.252-4.25c.54-.54.54-1.41 0-1.95l-1.74-1.74c.415-.79.76-1.61 1.03-2.47h2.455c.76 0 1.38-.61 1.38-1.38v-6.02c0-.76-.62-1.38-1.38-1.38h-2.47c-.264-.85-.604-1.68-1.018-2.47l1.736-1.73c.537-.54.537-1.41 0-1.95l-4.26-4.25c-.54-.54-1.412-.54-1.95 0l-1.74 1.74c-.793-.412-1.615-.75-2.47-1.015v-2.47c0-.76-.616-1.38-1.38-1.38h-6.02zm1.38 2.76h3.26v1.98c0 .65.45 1.21 1.08 1.35 1.34.31 2.6.83 3.76 1.56.55.34 1.26.26 1.71-.19l1.4-1.39 2.31 2.3-1.39 1.39c-.45.46-.53 1.16-.19 1.71.72 1.16 1.25 2.44 1.55 3.77.146.63.7 1.08 1.35 1.08h1.99v3.26H77.3c-.64 0-1.2.45-1.35 1.07-.3 1.34-.83 2.61-1.55 3.77-.34.54-.26 1.25.195 1.71l1.4 1.4-2.302 2.3-1.393-1.39c-.45-.45-1.16-.53-1.7-.194-1.16.727-2.438 1.25-3.77 1.55-.628.145-1.07.7-1.074 1.34v1.99h-3.27v-1.99c0-.643-.446-1.2-1.072-1.342-1.33-.302-2.6-.83-3.76-1.555-.54-.34-1.25-.26-1.71.19l-1.4 1.39-2.3-2.3 1.392-1.4c.457-.45.537-1.16.196-1.71-.723-1.16-1.245-2.43-1.545-3.763-.144-.63-.7-1.08-1.35-1.08h-2v-3.26h1.98c.644 0 1.2-.446 1.346-1.074.305-1.336.83-2.61 1.558-3.77.34-.545.26-1.254-.19-1.71l-1.4-1.4 2.3-2.3 1.4 1.39c.45.45 1.16.53 1.7.194 1.16-.726 2.434-1.25 3.77-1.55.62-.146 1.07-.7 1.07-1.34V61.9zm-33.9 4.76c-.76 0-1.38.62-1.38 1.38v1.41c-.39.14-.78.3-1.16.48l-1-.99c-.54-.54-1.42-.54-1.95 0l-2.93 2.93c-.54.54-.54 1.41 0 1.95l.99 1c-.19.38-.35.77-.49 1.17h-1.4c-.76 0-1.38.62-1.38 1.38v4.14c0 .76.62 1.38 1.38 1.38h1.41c.14.4.3.79.48 1.17l-.99 1c-.54.54-.54 1.41 0 1.95l2.93 2.93c.54.54 1.42.54 1.96 0l1-.99c.38.188.77.34 1.17.48v1.41c0 .76.62 1.38 1.38 1.38h4.14c.76 0 1.38-.62 1.38-1.38V89.4c.4-.14.78-.298 1.16-.48l1 .996c.54.538 1.41.538 1.95 0l2.93-2.926c.26-.26.41-.61.41-.978 0-.367-.143-.72-.403-.978l-.99-.99c.18-.38.34-.767.48-1.165H42c.762 0 1.38-.62 1.38-1.38v-4.14c0-.77-.618-1.38-1.38-1.38h-1.412c-.136-.4-.296-.79-.48-1.17l.998-1c.538-.54.538-1.42 0-1.95l-2.926-2.92c-.54-.54-1.412-.54-1.95 0l-.997.99c-.38-.19-.765-.35-1.164-.49v-1.4c0-.77-.62-1.38-1.38-1.38h-4.14zm1.38 2.76h1.38v.93c0 .65.45 1.2 1.08 1.35.87.2 1.7.55 2.46 1.02.55.35 1.26.27 1.71-.19l.66-.65.98.98-.65.65c-.45.46-.53 1.17-.19 1.71.47.76.82 1.59 1.01 2.46.14.63.7 1.08 1.34 1.08h.94v1.38h-.94c-.64 0-1.2.45-1.35 1.07-.2.87-.54 1.7-1.01 2.45-.34.55-.26 1.26.2 1.72l.66.66-.974.97-.65-.65c-.457-.452-1.165-.532-1.71-.19-.76.474-1.59.814-2.46 1.01-.63.14-1.077.7-1.077 1.346v.94h-1.38v-.94c.004-.642-.44-1.2-1.07-1.344-.87-.2-1.7-.54-2.456-1.013-.54-.35-1.25-.27-1.703.18l-.66.66-.974-.974.66-.66c.45-.45.53-1.16.19-1.7-.47-.757-.82-1.587-1.01-2.457-.14-.63-.7-1.076-1.34-1.08h-.934v-1.38h.935c.64 0 1.2-.443 1.34-1.07.2-.87.54-1.703 1.015-2.46.34-.543.26-1.25-.196-1.706l-.66-.66.97-.973.65.65c.454.457 1.163.537 1.708.196.756-.47 1.586-.81 2.456-1.004.63-.14 1.07-.7 1.08-1.34v-.93zm34.14.75c-3.78 0-6.9 3.11-6.9 6.89 0 3.79 3.11 6.9 6.89 6.9s6.89-3.11 6.89-6.89c0-3.79-3.11-6.9-6.89-6.9zm0 2.76c2.28 0 4.14 1.86 4.14 4.14s-1.86 4.13-4.14 4.13c-2.28 0-4.14-1.86-4.14-4.14 0-2.28 1.86-4.14 4.14-4.14zm-33.45 1.95c-2.49 0-4.54 2.05-4.54 4.55 0 2.49 2.05 4.53 4.54 4.53s4.55-2.05 4.55-4.54-2.05-4.54-4.54-4.54zm0 2.76c.99 0 1.79.8 1.79 1.79 0 .98-.8 1.77-1.78 1.77s-1.78-.8-1.78-1.78.8-1.79 1.79-1.79z" opacity=".7"/>
</svg>
