<svg xmlns="http://www.w3.org/2000/svg" viewBox="0 0 37.53 59.88"><defs><style>.cls-1{fill:#006747;}.cls-2{fill:#fff;}</style></defs><title>footer-logo</title><g id="Layer_2" data-name="Layer 2"><g id="Layer_1-2" data-name="Layer 1"><rect class="cls-1" x="1" y="1" width="35.53" height="57.88" rx="5.47" ry="5.47"/><path class="cls-2" d="M31.06,2a4.48,4.48,0,0,1,4.47,4.47V53.41a4.48,4.48,0,0,1-4.47,4.47H6.47A4.48,4.48,0,0,1,2,53.41V6.47A4.48,4.48,0,0,1,6.47,2H31.06m0-2H6.47A6.48,6.48,0,0,0,0,6.47V53.41a6.48,6.48,0,0,0,6.47,6.47H31.06a6.48,6.48,0,0,0,6.47-6.47V6.47A6.48,6.48,0,0,0,31.06,0Z"/><path id="M" class="cls-2" d="M8.37,10.27l2.18,4.81,2.2-4.81h1.57l0,12H12.7V13.95l-1.86,3.92h-.68l-1.85-4v8.4H6.7l0-12Z"/><path id="I" class="cls-2" d="M17.58,10.27l0,12H15.95l0-12Z"/><path id="L" class="cls-2" d="M20.94,10.27V20.81h3.63V22.3H19.32l0-12Z"/><path id="E" class="cls-2" d="M30.7,10.27v1.48H27.29v3.82H29.7V17H27.28v3.82h3.48V22.3H25.67l0-12Z"/><g id="_2_Bold" data-name="2 Bold"><path class="cls-2" d="M12.12,34a7.85,7.85,0,0,1,6.67-3.27c3.43,0,6.29,1.71,6.29,5.44a4.68,4.68,0,0,1-2,4c-1.5,1.15-3.91,2.17-5.33,3.16S16,45.22,16,46.19H25v3.43H11.86v-1.1c0-2.78.56-5.06,2.3-6.61,1.5-1.34,4.28-2.52,5.6-3.27s1.77-1.37,1.77-2.33c0-1.47-1.1-2.14-2.62-2.14a5.5,5.5,0,0,0-4.34,2.28Z"/></g></g></g></svg>