<svg xmlns="http://www.w3.org/2000/svg" viewBox="0 0 84 100">
  <title>
    Customization
  </title>
  <path fill="#ECEFF1" fill-rule="evenodd" d="M41.972 13.174c-4.32 0-7.83 3.57-7.83 7.913 0 2.017.778 3.843 2.02 5.246-4.79.898-8.448 4.978-8.448 9.916v5.56c0 .79.64 1.43 1.43 1.43h5.378c.217.05.442.05.66 0h13.626c.217.05.442.05.66 0h5.39c.788 0 1.428-.64 1.428-1.43v-5.57c0-4.96-3.686-9.04-8.5-9.92 1.242-1.41 2.02-3.23 2.02-5.24 0-4.35-3.515-7.92-7.834-7.92zm0 2.857c2.755 0 4.978 2.24 4.978 5.06 0 2.82-2.223 5.06-4.978 5.06S37 23.91 37 21.09s2.217-5.057 4.972-5.057zm9.72 2.86l-.713 2.77 1.19.31 3.18 1.16.73.36 1.24-2.57-.81-.38-.13-.05-3.29-1.2-.14-.04-1.29-.33zm-20.5.33l-1.48.44-.106.04-2.556 1.02-.106.05-1.272.63 1.255 2.57 1.223-.6 2.4-.95h.033l1.445-.44-.837-2.73zm28.816 3.03l-1.485 2.44 2.662 1.62 1.976 1.48 1.71-2.29-2.04-1.53-.11-.06-2.7-1.64zm-36.942.54l-1.016.6-.095.06L19.73 25l-.09.067-1.42 1.15 1.8 2.215 1.38-1.13 2.09-1.457.045-.028.97-.575-1.445-2.464zm44.08 4.66l-1.926 2.11 1.02.93 2.233 2.46.44.59 2.295-1.71-.503-.67-.09-.1-2.304-2.523-.09-.094-1.07-.976zm-51.116.76l-.53.5-.078.08-1.82 2-.07.085-1.402 1.8 2.255 1.75 1.334-1.71h.01l1.78-1.967.03-.03.45-.425-1.97-2.072zm22.11.8h7.712c4.248 0 7.573 3.24 7.573 7.25v4.14H50.56v-4.44c.007-.38-.143-.75-.415-1.03-.273-.27-.644-.42-1.03-.42-.38.01-.742.16-1.007.43-.264.28-.41.64-.403 1.02v4.44H36.28v-4.44c.006-.38-.144-.75-.416-1.03-.272-.27-.644-.42-1.03-.42-.38.01-.74.16-1.006.43-.265.28-.41.64-.405 1.02v4.44H30.57v-4.14c0-4.01 3.326-7.25 7.574-7.25zm34.827 5.23l-2.44 1.49 1.614 2.66 1.08 2.22 2.57-1.24-1.1-2.273-.07-.13-1.65-2.723zm-62.507.86l-.15.25-.06.1-1.33 2.37-.05.09-1.14 2.46 2.59 1.2 1.09-2.353.03-.035 1.25-2.25.02-.03.15-.21-2.385-1.59zm66.45 7.04l-2.68.98.51 1.38.86 3.32.077.53 2.83-.43-.095-.6-.026-.14-.88-3.42-.04-.14-.54-1.47zM6.67 43.25l-.74 2.606-.03.106-.556 2.75-.023.11-.02.19 2.84.34.03-.186.53-2.6.73-2.54-2.74-.786zm35.31 2.773c-.38.007-.74.163-1.003.435s-.41.638-.403 1.017v10.75L28.37 66.38c-.46.27-.73.77-.706 1.3.024.53.34 1.002.82 1.23.48.223 1.047.163 1.47-.157l12.08-8.08 12.01 8.08c.655.44 1.544.267 1.984-.39.44-.653.267-1.54-.388-1.982l-12.21-8.21v-10.7c.007-.38-.144-.75-.418-1.03-.273-.27-.646-.42-1.032-.42zm36.948 4.694l-2.606.408h-.22v.04l.18 3.547-.168 3.352 2.86.145.18-3.43-1.43-.07 1.43-.07-.184-3.66-.02-.15-.016-.12zM4.963 51.97l-.106 2.683v.128l.156 3.03 2.852-.14-.145-2.97.1-2.61-2.857-.11zm3.254 8.386l-2.824.424.206 1.345.02.145.88 3.415.04.145.28.77 2.68-.982-.25-.68-.86-3.315-.2-1.267zm67.505.39l-.134.87-.854 3.322-.385 1.05 2.67.98.42-1.143.04-.14.88-3.42.03-.14.14-.95-2.83-.428zm-59.46 3.857c-4.317 0-7.833 3.57-7.833 7.913 0 2.017.78 3.842 2.02 5.245-4.79.9-8.45 4.98-8.45 9.92v5.57c0 .79.64 1.43 1.43 1.43H8.8c.218.05.446.05.664 0H23.09c.218.05.446.05.664 0h5.39c.79 0 1.43-.64 1.43-1.43v-5.57c0-4.95-3.686-9.04-8.5-9.92 1.242-1.4 2.02-3.22 2.02-5.24 0-4.34-3.516-7.91-7.835-7.91zm51.424 0c-4.318 0-7.834 3.57-7.834 7.913 0 2.017.78 3.842 2.025 5.245-4.792.9-8.454 4.98-8.454 9.92v5.57c0 .79.64 1.43 1.43 1.43h5.384c.216.05.442.05.658 0h13.627c.217.05.442.05.66 0h5.39c.788 0 1.428-.64 1.428-1.43v-5.57c0-4.95-3.685-9.04-8.5-9.92 1.243-1.4 2.02-3.22 2.02-5.24 0-4.34-3.515-7.91-7.834-7.91zM16.263 67.46c2.756 0 4.978 2.237 4.978 5.056 0 2.818-2.22 5.055-4.97 5.055-2.75 0-4.97-2.23-4.97-5.05s2.22-5.05 4.98-5.05zm51.423 0c2.756 0 4.978 2.237 4.978 5.056 0 2.818-2.222 5.055-4.978 5.055-2.755 0-4.977-2.23-4.977-5.05s2.22-5.05 4.97-5.05zM12.43 80.43h7.717c4.25 0 7.573 3.238 7.573 7.247v4.14h-2.863v-4.435c.005-.386-.147-.757-.42-1.03-.273-.27-.645-.422-1.03-.416-.788.013-1.416.66-1.407 1.446v4.436H10.57v-4.436c.006-.386-.146-.757-.42-1.03-.272-.27-.644-.422-1.03-.416-.786.013-1.415.66-1.406 1.446v4.436H4.857v-4.14c0-4.01 3.324-7.25 7.573-7.25zm51.423 0h7.717c4.25 0 7.573 3.238 7.573 7.247v4.14H76.28v-4.435c.006-.387-.145-.76-.418-1.033-.274-.28-.646-.43-1.033-.42-.38 0-.74.16-1.01.43s-.41.64-.41 1.01v4.43H61.99v-4.43c.008-.39-.142-.76-.416-1.04-.273-.28-.646-.43-1.032-.42-.38 0-.74.16-1.004.43s-.41.633-.404 1.012v4.44H56.28v-4.14c0-4.01 3.324-7.25 7.573-7.25zm-32.087 5.31l-.508 2.825 1.808.52.106.027 2.757.558.11.028.19.027.34-2.84-.19-.028-2.6-.53-2.03-.586zm20.39.04l-3.32.843-1.267.195.42 2.83 1.34-.207.14-.02 3.42-.87.14-.04-.89-2.71zm-7.277 1.384l-2.97.14-2.61-.106-.13 2.857 2.68.11h.13l3.02-.15-.14-2.85z" opacity=".7"/>
</svg>
