<svg xmlns="http://www.w3.org/2000/svg" viewBox="0 0 84 100">
  <title>
    Innovation
  </title>
  <path fill="#ECEFF1" d="M34.59 4.038l-.84.052h-.132l-2.1.284.392 2.934 2.037-.272.776-.04-.133-2.958zm6.17.208l-.383 2.952 1.342.173 1.44.32.63-2.9-1.52-.33-.13-.02-1.4-.18zM25.416 5.948l-2.4.978-.117.058-.33.168 1.36 2.638.28-.144 2.33-.96-1.13-2.738zm24.248.752l-1.117 2.743.312.127 2.22 1.13 1.34-2.64-2.22-1.134-.11-.052-.43-.174zM36.592 9.623c-14.704 0-26.666 11.868-26.666 26.48 0 7.998 4.057 13.37 7.806 18.953 1.6 2.383 3.148 4.83 4.416 7.58l-1.435 2.39.19.116.11.058 2.46 1.204.087-.174c.908 2.846 1.475 6.056 1.475 9.873V88.14c0 .818.664 1.48 1.482 1.48h20.15c.818 0 1.48-.662 1.482-1.48V76.103c0-3.913.6-7.183 1.55-10.08l.16.335.74-.365-.52-1.06c1.38-3.734 3.33-6.853 5.36-9.877 3.75-5.583 7.8-10.955 7.8-18.952 0-14.614-11.96-26.48-26.67-26.48zm-19.294.706l-1.238.92-.093.08-1.064.94 1.967 2.21 1.02-.91 1.18-.89-1.772-2.37zm40.306 1.31l-1.96 2.22 1.457 1.28.63.64 2.14-2.06-.66-.69-.08-.08-1.51-1.33zm-21.012.94c13.114 0 23.703 10.52 23.703 23.52 0 7-3.497 11.63-7.303 17.29-3.59 5.34-7.115 11.82-7.53 21.22h-7.39V58.43c.01-.535-.272-1.032-.733-1.3-.47-.27-1.04-.27-1.5 0-.46.268-.74.765-.74 1.3v16.19h-7.39c-.42-9.398-3.94-15.872-7.53-21.22-3.81-5.666-7.3-10.294-7.3-17.296 0-13 10.58-23.52 23.7-23.52zm-25.885 4.2l-.307.37-.07.1-1.388 2.05 2.46 1.66 1.36-2.02.023-.04.23-.28-2.308-1.86zm22.923 1.73c-.82 0-1.482.66-1.482 1.48v2.34c-.788.25-1.55.56-2.286.94l-1.65-1.65c-.578-.58-1.516-.58-2.094 0l-4.19 4.19c-.578.58-.578 1.51 0 2.09l1.655 1.65c-.38.73-.698 1.49-.95 2.28h-2.337c-.818 0-1.48.66-1.48 1.48v5.92c0 .82.662 1.48 1.48 1.48h2.344c.25.79.56 1.55.937 2.28l-1.65 1.65c-.577.58-.577 1.51 0 2.09l4.19 4.19c.58.58 1.517.58 2.096 0l1.655-1.65c.735.38 1.492.7 2.28.95v2.33c0 .82.663 1.48 1.48 1.48h5.927c.818 0 1.48-.66 1.48-1.48v-2.34c.79-.25 1.55-.56 2.287-.94l1.65 1.65c.578.57 1.516.57 2.094 0l4.19-4.19c.578-.58.578-1.52 0-2.1L49.6 43.01c.38-.737.7-1.494.95-2.28h2.338c.818 0 1.48-.665 1.48-1.48v-5.93c0-.817-.662-1.48-1.48-1.48h-2.344c-.25-.79-.56-1.55-.937-2.286l1.65-1.65c.577-.58.577-1.52 0-2.1l-4.19-4.19c-.58-.58-1.517-.58-2.096 0l-1.65 1.65c-.73-.38-1.49-.7-2.28-.95v-2.33c0-.82-.66-1.483-1.48-1.483h-5.93zm30.114.01l-2.448 1.66.52.77.94 1.66 2.58-1.46-.973-1.73-.063-.11-.556-.82zM35.11 21.47h2.97v1.83c0 .693.478 1.293 1.15 1.448 1.3.295 2.54.806 3.67 1.515.586.366 1.347.28 1.835-.21l1.29-1.29 2.096 2.096-1.28 1.28c-.49.49-.57 1.25-.21 1.83.71 1.13 1.22 2.37 1.51 3.67.15.68.75 1.16 1.45 1.16h1.84v2.96H49.6c-.69 0-1.29.48-1.445 1.15-.293 1.3-.805 2.54-1.513 3.67-.367.58-.28 1.34.208 1.83l1.29 1.29-2.098 2.1-1.286-1.29c-.49-.49-1.25-.58-1.832-.21-1.13.71-2.37 1.21-3.67 1.51-.675.15-1.156.75-1.156 1.44v1.83h-2.97v-1.83c0-.7-.48-1.3-1.15-1.45-1.3-.3-2.54-.81-3.67-1.52-.587-.37-1.35-.29-1.837.2l-1.29 1.29-2.09-2.1 1.29-1.288c.49-.49.58-1.25.21-1.83-.7-1.13-1.21-2.367-1.5-3.667-.15-.68-.75-1.16-1.45-1.16H21.8V34.8h1.83c.69.003 1.293-.476 1.447-1.15.3-1.3.81-2.54 1.52-3.67.367-.584.28-1.345-.21-1.834l-1.29-1.29 2.096-2.095 1.284 1.29c.487.49 1.244.57 1.83.21 1.13-.7 2.374-1.21 3.674-1.5.68-.15 1.16-.75 1.16-1.44v-1.84zM6.16 24.96l-.74 2.118-.036.12-.18.702 2.87.735.146-.58.01-.04.725-2.077-2.795-.978zm61.584 1.898l-2.546.897-.248.07.006.028h-.004l.03.082.005.03.62 2.4.005.04.017.077.07-.03 2.84-.48-.03-.116-.03-.128-.69-2.65-.04-.122-.04-.098zM36.59 28.88c-4.065 0-7.407 3.343-7.407 7.41 0 4.064 3.34 7.406 7.407 7.406 4.066 0 7.407-3.342 7.407-7.407 0-4.07-3.345-7.41-7.41-7.41zm0 2.964c2.447 0 4.444 1.997 4.444 4.445 0 2.44-1.998 4.44-4.444 4.44-2.446 0-4.444-2-4.444-4.45s1.997-4.45 4.444-4.45zM4.13 33.968l-.115 1.534-.005.127.017 1.43 2.96-.04-.018-1.31v-.03l.11-1.51-2.95-.22zm62.106 2.118l-.017 1.99-.08.846 2.95.278.09-.897v-.128l.01-2.06-2.96-.03zm-58.62 6.58l-2.918.538.104.573.03.122.63 2.29 2.86-.78-.615-2.24-.095-.51zM65.15 44.5l-.266.99-.01.04-.61 1.66 2.79 1.014.643-1.788.04-.116.278-1.03-2.864-.77zm-54.68 6l-2.575 1.49 1.06 1.85.062.1.475.687 2.442-1.678-.405-.59-.02-.03-1.05-1.83zm51.353 1.674l-1.447 2.118-.023.035-.15.18 2.303 1.862.226-.28.07-.1 1.47-2.15-2.45-1.67zm-46.32 5.173l-2.128 2.066.764.787.09.08 1.4 1.228 1.94-2.24-1.36-1.174-.73-.747zm40.846 1.308l-1.16 1.013-1.05.77 1.75 2.39 1.08-.805.1-.075 1.21-1.065-1.96-2.228zm8.76 3.56c-.82 0-1.48.662-1.48 1.48v1.517c-.43.145-.85.313-1.25.51l-1.08-1.066c-.58-.578-1.52-.578-2.1 0L56.07 67.8c-.577.577-.577 1.515 0 2.093l1.07 1.07c-.196.41-.37.823-.52 1.25h-1.51c-.818 0-1.48.664-1.48 1.482v4.445c0 .818.662 1.48 1.48 1.48h1.516c.147.43.314.844.51 1.25l-1.065 1.072c-.57.578-.57 1.516 0 2.095l3.15 3.142c.58.57 1.52.57 2.1 0l1.07-1.08c.41.2.82.37 1.25.52v1.51c0 .81.67 1.48 1.48 1.48h4.45c.82 0 1.48-.67 1.48-1.48v-1.51c.43-.15.85-.32 1.25-.51l1.07 1.06c.58.57 1.52.57 2.1 0l3.15-3.15c.58-.58.58-1.52 0-2.1l-1.07-1.07c.2-.41.37-.83.52-1.25h1.51c.82 0 1.48-.67 1.48-1.48v-4.44c0-.82-.66-1.48-1.48-1.48h-1.52c-.14-.43-.32-.85-.51-1.25l1.07-1.07c.58-.58.58-1.52 0-2.1l-3.14-3.15c-.57-.58-1.51-.58-2.09 0l-1.07 1.07c-.41-.2-.83-.37-1.25-.52v-1.51c0-.82-.67-1.48-1.49-1.48h-4.44zm1.48 2.962h1.48v1c0 .693.47 1.294 1.15 1.448.93.213 1.82.58 2.64 1.088.58.366 1.34.28 1.83-.208l.7-.706 1.04 1.04-.71.7c-.49.49-.58 1.25-.21 1.83.5.81.88 1.7 1.09 2.64.15.67.75 1.15 1.44 1.15h1.01v1.48h-1c-.7 0-1.3.48-1.45 1.15-.22.93-.58 1.82-1.09 2.64-.37.58-.28 1.34.2 1.83l.71.7-1.05 1.05-.7-.71c-.49-.49-1.25-.58-1.84-.21-.82.5-1.71.87-2.64 1.08-.68.15-1.16.75-1.16 1.44v1.01h-1.48v-1c0-.69-.48-1.3-1.15-1.45-.94-.21-1.83-.58-2.64-1.09-.59-.37-1.35-.28-1.83.21l-.71.7-1.05-1.05.704-.71c.49-.486.57-1.243.21-1.827-.504-.814-.874-1.706-1.084-2.64-.15-.675-.75-1.155-1.44-1.16h-1.01v-1.48h1c.69 0 1.29-.48 1.45-1.155.21-.94.574-1.83 1.083-2.64.364-.59.28-1.35-.21-1.84l-.708-.707 1.05-1.046.7.7c.49.49 1.25.58 1.833.214.82-.51 1.71-.88 2.64-1.09.68-.15 1.16-.75 1.16-1.44v-1.01zm.74 5.862c-2.68 0-4.88 2.2-4.88 4.87s2.2 4.88 4.88 4.88 4.88-2.21 4.88-4.88c0-2.68-2.21-4.88-4.88-4.88zm0 2.96c1.05 0 1.91.86 1.91 1.91s-.86 1.91-1.92 1.91-1.92-.86-1.92-1.92.86-1.92 1.91-1.92zm-39.34 3.58h8.35c.16.02.32.02.48 0h8.35v9.07H28v-2.96h14.52v-2.96H28v-3.15zm1.03 15c-.82.04-1.45.73-1.41 1.55.04.82.74 1.44 1.55 1.4H44c.534 0 1.03-.28 1.3-.74.27-.46.27-1.03 0-1.49-.27-.47-.766-.75-1.3-.74H29.184c-.05-.01-.1-.01-.15 0z" opacity=".7"/>
</svg>
