<svg xmlns="http://www.w3.org/2000/svg" viewBox="0 0 66 66"><defs><style>.cls-1{fill:#006747;}.cls-2{fill:#fff;}</style></defs><title>logo-sqare</title><g id="Layer_2" data-name="Layer 2"><g id="Layer_1-2" data-name="Layer 1"><rect class="cls-1" x="1.5" y="1.5" width="63" height="63" rx="9.5" ry="9.5"/><path class="cls-2" d="M55,3a8,8,0,0,1,8,8V55a8,8,0,0,1-8,8H11a8,8,0,0,1-8-8V11a8,8,0,0,1,8-8H55m0-3H11A11,11,0,0,0,0,11V55A11,11,0,0,0,11,66H55A11,11,0,0,0,66,55V11A11,11,0,0,0,55,0Z"/><g id="_2_Bold" data-name="2 Bold"><path class="cls-2" d="M20.29,19.61c2.91-4.23,7.71-6.45,13.15-6.45,6.76,0,12.42,3.38,12.42,10.72a9.23,9.23,0,0,1-4,8c-3,2.27-7.71,4.28-10.51,6.23s-3.43,3.65-3.43,5.55H45.75v6.76h-26V48.24c0-5.49,1.11-10,4.54-13,3-2.64,8.45-5,11-6.45s3.49-2.69,3.49-4.6c0-2.91-2.17-4.23-5.18-4.23a10.85,10.85,0,0,0-8.56,4.49Z"/></g></g></g></svg>